<svg width="11" height="12" viewBox="0 0 11 12" fill="none" xmlns="http://www.w3.org/2000/svg">
<path d="M5.48754 5.67558C4.00156 5.67558 2.79721 4.47124 2.79721 2.98525C2.79721 1.49926 4.00156 0.294922 5.48754 0.294922C6.97353 0.294922 8.17787 1.49926 8.17787 2.98525C8.17787 4.47124 6.97353 5.67558 5.48754 5.67558ZM3.60431 6.34816H3.95532C4.42192 6.56255 4.94107 6.68445 5.48754 6.68445C6.03402 6.68445 6.55106 6.56255 7.01977 6.34816H7.37077C8.93032 6.34816 10.1956 7.61346 10.1956 9.17301V10.0474C10.1956 10.6043 9.74373 11.0562 9.18674 11.0562H1.78834C1.23136 11.0562 0.779467 10.6043 0.779467 10.0474V9.17301C0.779467 7.61346 2.04476 6.34816 3.60431 6.34816Z" fill="#2DB9EB"/>
</svg>
