<svg width="130" height="41" viewBox="0 0 130 41" fill="none" xmlns="http://www.w3.org/2000/svg">
<path d="M107.176 18.8603L1.96952 40.1024C1.36522 40.1024 0.49211 39.364 0.245991 38.1554C-0.000127301 36.9468 0.470122 35.9169 1.07442 35.7155L106.281 14.4734C106.886 14.3613 111.587 14.4734 111.833 15.6373C112.079 16.8012 107.871 18.7482 107.176 18.8603Z" fill="#9EE5FF"/>
<path d="M88.26 22.9812L97.6394 29.5619L121.5 21.5485L113.756 15.5721L116.844 5.27557L91.6404 9.25957L86.7379 17.2957C86.4251 17.8326 84.7462 18.8844 83.8284 18.3248C82.9106 17.7652 83.0674 15.7955 83.3809 15.2806L89.2451 5.58836L122.373 0.351074L118.299 14.0273L129.693 22.8245L97.0124 33.8147L85.9995 26.2488C85.5073 25.8907 84.5668 24.1671 85.1938 23.294C85.8208 22.4216 87.723 22.623 88.26 22.9812Z" fill="#9EE5FF"/>
</svg>