<svg width="170" height="76" viewBox="0 0 170 76" fill="none" xmlns="http://www.w3.org/2000/svg">
<path d="M137.625 27.2794L2.8771 75.9641C2.36358 76.0265 1.84369 75.9088 1.40749 75.6314C0.970574 75.3534 0.643592 74.9335 0.481877 74.442C0.268386 73.966 0.239306 73.427 0.401021 72.9305C0.562027 72.4347 0.90177 72.0155 1.355 71.7559L136.103 23.0713C136.886 22.7803 142.975 21.6387 143.4 22.8027C143.826 23.9666 138.408 26.9885 137.625 27.2794Z" fill="#9EE5FF"/>
<path d="M122.099 31.3528L132.552 37.0159L160.375 28.3308L148.646 20.116L153.347 6.6859L125.568 15.6398L121.338 29.5175C121.114 30.2338 119.659 32.0245 118.629 31.7559C117.6 31.4873 117.376 29.1369 117.6 28.4206L122.412 12.5953L159.659 0.48584L153.324 18.6837L169.172 29.764L132.149 41.3139L120.219 34.8451C119.569 34.5093 118.114 32.6067 118.629 31.7562C119.144 30.9056 121.449 30.9951 122.099 31.3532V31.3528Z" fill="#9EE5FF"/>
</svg>