<svg width="152" height="102" viewBox="0 0 152 102" fill="none" xmlns="http://www.w3.org/2000/svg">
<path d="M112.63 33.9767L2.72794 101.352C2.27614 101.454 1.80304 101.412 1.37535 101.234C0.947655 101.055 0.585925 100.748 0.340516 100.354C0.0943971 99.9613 -0.0226269 99.5017 0.00361632 99.0393C0.0305688 98.5761 0.200084 98.1328 0.489468 97.7711L110.392 30.3956C111.019 30.0151 116.211 27.9334 116.816 28.9183C117.421 29.9032 113.167 33.5965 112.63 33.977V33.9767Z" fill="#9EE5FF"/>
<path d="M98.3524 43.6928L110.149 45.2374L140.21 26.5919L120.714 23.5477L128.302 8.23731L97.4573 22.4732L93.4953 36.8885C93.2718 37.7391 91.7497 39.9327 90.7199 39.6417C89.69 39.3507 89.4886 36.7095 89.7127 35.8588L94.1896 19.6753L136.831 0L126.579 20.5037L151.201 24.3537L110.91 49.3117L97.7261 47.5881C96.853 47.5881 94.4805 46.2675 94.6145 45.193C94.7493 44.1186 97.48 43.5814 98.3524 43.6933V43.6928Z" fill="#9EE5FF"/>
</svg>