<svg width="16" height="17" viewBox="0 0 16 17" fill="none" xmlns="http://www.w3.org/2000/svg">
<path d="M12.736 4.19772C12.8042 4.12808 12.8857 4.07276 12.9756 4.035C13.0655 3.99724 13.162 3.97778 13.2595 3.97778C13.357 3.97778 13.4535 3.99724 13.5434 4.035C13.6333 4.07276 13.7147 4.12808 13.783 4.19772C14.069 4.48672 14.073 4.95372 13.793 5.24772L7.88 12.2377C7.81286 12.3114 7.73139 12.3707 7.64057 12.4118C7.54975 12.453 7.45149 12.4752 7.3518 12.4771C7.25211 12.4789 7.15309 12.4604 7.06079 12.4227C6.96849 12.385 6.88485 12.3289 6.815 12.2577L3.217 8.61172C3.07823 8.4702 3.0005 8.27991 3.0005 8.08172C3.0005 7.88352 3.07823 7.69323 3.217 7.55172C3.28524 7.48208 3.36669 7.42676 3.45658 7.389C3.54647 7.35123 3.64299 7.33178 3.7405 7.33178C3.838 7.33178 3.93452 7.35123 4.02441 7.389C4.1143 7.42676 4.19575 7.48208 4.264 7.55172L7.316 10.6447L12.716 4.21972C12.7222 4.21199 12.7289 4.20464 12.736 4.19772Z" fill="#2DB9EB"/>
</svg>