<svg width="12" height="14" viewBox="0 0 12 14" fill="none" xmlns="http://www.w3.org/2000/svg">
<path fill-rule="evenodd" clip-rule="evenodd" d="M3.11481 1.9648H8.0443V0.732422H9.27668V1.9648H9.89286C10.2197 1.9648 10.5332 2.09463 10.7643 2.32575C10.9954 2.55686 11.1252 2.87032 11.1252 3.19717V11.8238C11.1252 12.1506 10.9954 12.4641 10.7643 12.6952C10.5332 12.9263 10.2197 13.0562 9.89286 13.0562H1.26625C0.939402 13.0562 0.625943 12.9263 0.394828 12.6952C0.163713 12.4641 0.0338745 12.1506 0.0338745 11.8238V3.19717C0.0338745 2.87032 0.163713 2.55686 0.394828 2.32575C0.625943 2.09463 0.939402 1.9648 1.26625 1.9648H1.88244V0.732422H3.11481V1.9648ZM1.26625 4.42954V11.8238H9.89286V4.42954H1.26625ZM2.49862 6.2781H3.731V7.51048H2.49862V6.2781ZM4.96337 6.2781H6.19574V7.51048H4.96337V6.2781ZM7.42812 6.2781H8.66049V7.51048H7.42812V6.2781ZM7.42812 8.74285H8.66049V9.97522H7.42812V8.74285ZM4.96337 8.74285H6.19574V9.97522H4.96337V8.74285ZM2.49862 8.74285H3.731V9.97522H2.49862V8.74285Z" fill="#2DB9EB"/>
</svg>
