<svg width="23" height="23" viewBox="0 0 23 23" fill="none" xmlns="http://www.w3.org/2000/svg">
<path d="M7.53651 2.27417V5.10042" stroke="#2DB9EB" stroke-width="1.05984" stroke-miterlimit="10" stroke-linecap="round" stroke-linejoin="round"/>
<path d="M15.0734 2.27417V5.10042" stroke="#2DB9EB" stroke-width="1.05984" stroke-miterlimit="10" stroke-linecap="round" stroke-linejoin="round"/>
<path d="M3.29713 8.95361H19.3126" stroke="#2DB9EB" stroke-width="1.41313" stroke-miterlimit="10" stroke-linecap="round" stroke-linejoin="round"/>
<path d="M19.7837 8.3978V15.8026C19.096 15.0206 18.088 14.5214 16.9575 14.5214C14.8755 14.5214 13.1891 16.2077 13.1891 18.2897C13.1891 18.9963 13.387 19.6651 13.7356 20.2304C13.9334 20.5695 14.1878 20.871 14.4798 21.1159H7.53664C4.23934 21.1159 2.82622 19.2318 2.82622 16.4055V8.3978C2.82622 5.57155 4.23934 3.68738 7.53664 3.68738H15.0733C18.3706 3.68738 19.7837 5.57155 19.7837 8.3978Z" stroke="#2DB9EB" stroke-width="1.41313" stroke-miterlimit="10" stroke-linecap="round" stroke-linejoin="round"/>
<path d="M11.3006 13.2966H11.3091" stroke="#1D2A80" stroke-width="2.11969" stroke-linecap="round" stroke-linejoin="round"/>
<path d="M7.81401 13.2966H7.82247" stroke="#1D2A80" stroke-width="2.11969" stroke-linecap="round" stroke-linejoin="round"/>
<path d="M7.81401 16.8294H7.82247" stroke="#1D2A80" stroke-width="2.11969" stroke-linecap="round" stroke-linejoin="round"/>
<path d="M20.7257 18.2896C20.7257 18.9961 20.5278 19.665 20.1793 20.2303C19.5292 21.3231 18.3328 22.0579 16.9573 22.0579C16.0058 22.0579 15.1391 21.7093 14.4797 21.1158C14.1876 20.8709 13.9333 20.5694 13.7354 20.2303C13.3869 19.665 13.189 18.9961 13.189 18.2896C13.189 16.2076 14.8753 14.5212 16.9573 14.5212C18.0878 14.5212 19.0959 15.0205 19.7836 15.8025C20.3677 16.4713 20.7257 17.3381 20.7257 18.2896Z" stroke="#1D2A80" stroke-width="1.05984" stroke-miterlimit="10" stroke-linecap="round" stroke-linejoin="round"/>
<path d="M15.4878 18.2896L16.4205 19.2222L18.4271 17.3663" stroke="#1D2A80" stroke-width="1.05984" stroke-linecap="round" stroke-linejoin="round"/>
</svg>
