<svg width="32" height="33" viewBox="0 0 32 33" fill="none" xmlns="http://www.w3.org/2000/svg">
<path d="M10.6665 3.16669V7.16669" stroke="#2DB9EB" stroke-width="1.5" stroke-miterlimit="10" stroke-linecap="round" stroke-linejoin="round"/>
<path d="M21.3335 3.16669V7.16669" stroke="#2DB9EB" stroke-width="1.5" stroke-miterlimit="10" stroke-linecap="round" stroke-linejoin="round"/>
<path d="M4.66649 12.62H27.3332" stroke="#2DB9EB" stroke-width="2" stroke-miterlimit="10" stroke-linecap="round" stroke-linejoin="round"/>
<path d="M28 11.8334V22.3133C27.0267 21.2067 25.6 20.5 24 20.5C21.0533 20.5 18.6667 22.8867 18.6667 25.8334C18.6667 26.8334 18.9467 27.78 19.44 28.58C19.72 29.06 20.08 29.4867 20.4933 29.8334H10.6667C6 29.8334 4 27.1667 4 23.1667V11.8334C4 7.83335 6 5.16669 10.6667 5.16669H21.3333C26 5.16669 28 7.83335 28 11.8334Z" stroke="#2DB9EB" stroke-width="2" stroke-miterlimit="10" stroke-linecap="round" stroke-linejoin="round"/>
<path d="M15.9938 18.7667H16.0058" stroke="#1D2A80" stroke-width="3" stroke-linecap="round" stroke-linejoin="round"/>
<path d="M11.0593 18.7667H11.0712" stroke="#1D2A80" stroke-width="3" stroke-linecap="round" stroke-linejoin="round"/>
<path d="M11.0592 23.7667H11.0712" stroke="#1D2A80" stroke-width="3" stroke-linecap="round" stroke-linejoin="round"/>
<path d="M29.3332 25.8333C29.3332 26.8333 29.0532 27.78 28.5598 28.58C27.6398 30.1267 25.9465 31.1667 23.9998 31.1667C22.6532 31.1667 21.4265 30.6733 20.4932 29.8333C20.0798 29.4867 19.7198 29.06 19.4398 28.58C18.9465 27.78 18.6665 26.8333 18.6665 25.8333C18.6665 22.8867 21.0532 20.5 23.9998 20.5C25.5998 20.5 27.0265 21.2066 27.9998 22.3133C28.8265 23.26 29.3332 24.4867 29.3332 25.8333Z" stroke="#1D2A80" stroke-width="1.5" stroke-miterlimit="10" stroke-linecap="round" stroke-linejoin="round"/>
<path d="M21.92 25.8333L23.24 27.1533L26.08 24.5266" stroke="#1D2A80" stroke-width="1.5" stroke-linecap="round" stroke-linejoin="round"/>
</svg>
