<svg width="23" height="23" viewBox="0 0 23 23" fill="none" xmlns="http://www.w3.org/2000/svg">
<path d="M17.5306 5.95312C17.6245 5.85727 17.7367 5.78113 17.8604 5.72915C17.9841 5.67717 18.117 5.65039 18.2512 5.65039C18.3854 5.65039 18.5182 5.67717 18.642 5.72915C18.7657 5.78113 18.8778 5.85727 18.9718 5.95312C19.3654 6.35092 19.3709 6.99373 18.9855 7.39841L10.8465 17.0199C10.7541 17.1213 10.642 17.2029 10.517 17.2595C10.3919 17.3162 10.2567 17.3467 10.1195 17.3493C9.98225 17.3519 9.84595 17.3264 9.7189 17.2745C9.59185 17.2226 9.47673 17.1453 9.38058 17.0474L4.42807 12.0288C4.23707 11.834 4.13008 11.5721 4.13008 11.2993C4.13008 11.0265 4.23707 10.7646 4.42807 10.5698C4.52201 10.4739 4.63412 10.3978 4.75785 10.3458C4.88158 10.2938 5.01444 10.267 5.14865 10.267C5.28285 10.267 5.41571 10.2938 5.53944 10.3458C5.66317 10.3978 5.77529 10.4739 5.86923 10.5698L10.0702 14.8272L17.5031 5.9834C17.5116 5.97277 17.5208 5.96265 17.5306 5.95312Z" fill="#1D2A80"/>
</svg>
