<svg width="230" height="179" viewBox="0 0 230 179" fill="none" xmlns="http://www.w3.org/2000/svg">
<path d="M202.865 -44.3507C82.7524 29.6243 245.342 97.2497 191.736 158.304C154.613 200.585 59.5176 197.617 16.6103 190.848" stroke="url(#paint0_linear_728_778)" stroke-width="0.90186"/>
<path d="M228.803 6.23096C217.773 8.59434 194.415 23.72 189.216 65.3158C182.716 117.31 192.17 137.399 178.58 158.67C167.709 175.686 151.992 183.879 145.493 185.849" stroke="url(#paint1_linear_728_778)" stroke-width="0.90186"/>
<g filter="url(#filter0_d_728_778)">
<path fill-rule="evenodd" clip-rule="evenodd" d="M153.032 191.482L235.155 197.869L241.573 115.433C241.378 115.409 241.113 115.368 240.846 115.346C228.024 114.318 215.201 113.285 202.379 112.249C202.056 112.213 201.728 112.248 201.42 112.352C201.111 112.456 200.829 112.627 200.593 112.851C186.056 125.313 171.506 137.761 156.944 150.195C156.679 150.407 156.463 150.675 156.312 150.98C156.161 151.284 156.078 151.618 156.07 151.958C155.09 164.817 154.096 177.675 153.086 190.532C153.063 190.832 153.052 191.131 153.032 191.482Z" fill="white"/>
<path fill-rule="evenodd" clip-rule="evenodd" d="M153.032 191.482C153.052 191.132 153.062 190.832 153.088 190.531C154.086 177.673 155.081 164.816 156.071 151.958C156.08 151.618 156.162 151.284 156.313 150.979C156.464 150.675 156.68 150.407 156.946 150.195C171.509 137.762 186.059 125.314 200.595 112.851C200.831 112.626 201.113 112.456 201.421 112.352C201.73 112.248 202.057 112.213 202.381 112.248C215.202 113.295 228.024 114.328 240.848 115.346C241.114 115.366 241.379 115.409 241.574 115.433L235.155 197.869L153.032 191.482ZM233.722 122.474L207.428 120.43L203.817 160.534L163.347 157.383L161.239 184.518L228.487 189.752L233.722 122.474Z" fill="#2DB9EB"/>
<path fill-rule="evenodd" clip-rule="evenodd" d="M233.722 122.473L228.486 189.752L161.239 184.517L163.346 157.382L203.816 160.533L207.427 120.429L233.722 122.473Z" fill="white"/>
</g>
<defs>
<filter id="filter0_d_728_778" x="85.3928" y="48.2028" width="223.821" height="220.913" filterUnits="userSpaceOnUse" color-interpolation-filters="sRGB">
<feFlood flood-opacity="0" result="BackgroundImageFix"/>
<feColorMatrix in="SourceAlpha" type="matrix" values="0 0 0 0 0 0 0 0 0 0 0 0 0 0 0 0 0 0 127 0" result="hardAlpha"/>
<feOffset dy="3.60744"/>
<feGaussianBlur stdDeviation="33.8197"/>
<feComposite in2="hardAlpha" operator="out"/>
<feColorMatrix type="matrix" values="0 0 0 0 0.0305556 0 0 0 0 0.0506172 0 0 0 0 0.183333 0 0 0 1 0"/>
<feBlend mode="normal" in2="BackgroundImageFix" result="effect1_dropShadow_728_778"/>
<feBlend mode="normal" in="SourceGraphic" in2="effect1_dropShadow_728_778" result="shape"/>
</filter>
<linearGradient id="paint0_linear_728_778" x1="99.0463" y1="63.8618" x2="198.212" y2="150.929" gradientUnits="userSpaceOnUse">
<stop stop-color="#9EE5FF"/>
<stop offset="1" stop-color="#9EE5FF" stop-opacity="0"/>
</linearGradient>
<linearGradient id="paint1_linear_728_778" x1="187.148" y1="6.23096" x2="187.148" y2="185.849" gradientUnits="userSpaceOnUse">
<stop stop-color="#9EE5FF"/>
<stop offset="1" stop-color="#9EE5FF" stop-opacity="0"/>
</linearGradient>
</defs>
</svg>
