<svg width="16" height="17" viewBox="0 0 16 17" fill="none" xmlns="http://www.w3.org/2000/svg">
<path d="M5.45259 1.77539H2.05605C1.58708 1.77539 1.20691 2.15556 1.20691 2.62453V6.02107C1.20691 6.49004 1.58708 6.87021 2.05605 6.87021H5.45259C5.92155 6.87021 6.30173 6.49004 6.30173 6.02107V2.62453C6.30173 2.15556 5.92155 1.77539 5.45259 1.77539Z" stroke="#1D2A80" stroke-width="2" stroke-linecap="round" stroke-linejoin="round"/>
<path d="M5.45259 10.2666H2.05605C1.58708 10.2666 1.20691 10.6468 1.20691 11.1157V14.5123C1.20691 14.9812 1.58708 15.3614 2.05605 15.3614H5.45259C5.92155 15.3614 6.30173 14.9812 6.30173 14.5123V11.1157C6.30173 10.6468 5.92155 10.2666 5.45259 10.2666Z" stroke="#1D2A80" stroke-width="2" stroke-linecap="round" stroke-linejoin="round"/>
<path d="M13.9439 10.2666H10.5474C10.0784 10.2666 9.69824 10.6468 9.69824 11.1157V14.5123C9.69824 14.9812 10.0784 15.3614 10.5474 15.3614H13.9439C14.4129 15.3614 14.7931 14.9812 14.7931 14.5123V11.1157C14.7931 10.6468 14.4129 10.2666 13.9439 10.2666Z" stroke="#1D2A80" stroke-width="2" stroke-linecap="round" stroke-linejoin="round"/>
<path d="M9.69824 4.32275H14.7931" stroke="#1D2A80" stroke-width="1.2737" stroke-linecap="round" stroke-linejoin="round"/>
<path d="M12.2457 1.77539V6.87021" stroke="#1D2A80" stroke-width="1.2737" stroke-linecap="round" stroke-linejoin="round"/>
</svg>