<svg width="22" height="23" viewBox="0 0 22 23" fill="none" xmlns="http://www.w3.org/2000/svg">
<path d="M20.9046 9.64222H10.9416V13.7372H16.6332C16.3878 15.0608 15.6432 16.1803 14.5209 16.9304C13.5723 17.5646 12.3618 17.9396 10.9389 17.9396C8.18412 17.9396 5.854 16.0783 5.02123 13.5772C4.81166 12.943 4.69032 12.2646 4.69032 11.567C4.69032 10.8693 4.81166 10.191 5.02123 9.55674C5.85676 7.05841 8.18687 5.19708 10.9416 5.19708C12.4941 5.19708 13.8867 5.73204 14.9842 6.7799L18.0175 3.74386C16.1837 2.03419 13.7929 0.986328 10.9416 0.986328C6.80811 0.986328 3.23159 3.35781 1.49159 6.81575C0.774631 8.24415 0.366516 9.86007 0.366516 11.5697C0.366516 13.2794 0.774631 14.8926 1.49159 16.321C3.23159 19.7789 6.80811 22.1504 10.9416 22.1504C13.7984 22.1504 16.192 21.2018 17.9403 19.5859C19.9395 17.7439 21.0949 15.0304 21.0949 11.8069C21.0949 11.0568 21.0287 10.3371 20.9046 9.64222Z" fill="#1D2A80"/>
</svg>