<svg width="18" height="18" viewBox="0 0 18 18" fill="none" xmlns="http://www.w3.org/2000/svg">
<path d="M8.99916 0.13916C6.64874 0.13916 6.35581 0.15051 5.43597 0.189422C4.51234 0.23482 3.88758 0.378039 3.33632 0.592058C2.75936 0.809871 2.23686 1.15089 1.80522 1.59135C1.36353 2.02198 1.02232 2.54478 0.805925 3.12245C0.591907 3.67371 0.448687 4.29847 0.403289 5.2221C0.361675 6.14249 0.353027 6.43487 0.353027 8.78529C0.353027 11.1357 0.364377 11.4286 0.403289 12.3485C0.448687 13.2694 0.591907 13.8969 0.805925 14.4481C1.02374 15.0251 1.36476 15.5476 1.80522 15.9792C2.23585 16.4209 2.75865 16.7621 3.33632 16.9785C3.88758 17.1898 4.51504 17.3358 5.43597 17.3812C6.35636 17.4228 6.64874 17.4314 8.99916 17.4314C11.3496 17.4314 11.6425 17.4201 12.5624 17.3812C13.4833 17.3358 14.1107 17.1893 14.662 16.9785C15.239 16.7607 15.7615 16.4197 16.1931 15.9792C16.6354 15.5491 16.9767 15.0261 17.1924 14.4481C17.4037 13.8969 17.5496 13.2694 17.595 12.3485C17.6366 11.4281 17.6453 11.1357 17.6453 8.78529C17.6453 6.43487 17.6339 6.14195 17.595 5.2221C17.5496 4.30117 17.4032 3.67047 17.1924 3.12245C16.9746 2.5455 16.6336 2.02299 16.1931 1.59135C15.7629 1.1491 15.24 0.807795 14.662 0.592058C14.1107 0.378039 13.4833 0.23482 12.5624 0.189422C11.642 0.147807 11.3496 0.13916 8.99916 0.13916ZM8.99916 1.69566C11.3074 1.69566 11.5831 1.70701 12.4953 1.74592C13.3368 1.78537 13.7951 1.92589 14.0994 2.04479C14.4756 2.18364 14.816 2.40465 15.096 2.69171C15.3826 2.97049 15.6027 3.31017 15.7402 3.6856C15.8591 3.98987 15.9996 4.44817 16.0391 5.28966C16.078 6.20194 16.0893 6.47811 16.0893 8.78583C16.0893 11.0936 16.078 11.3697 16.0358 12.282C15.9904 13.1235 15.8499 13.5818 15.7316 13.8861C15.5678 14.2919 15.3851 14.5757 15.0836 14.8827C14.8027 15.1679 14.4624 15.3879 14.087 15.5269C13.7865 15.6458 13.3217 15.7863 12.477 15.8257C11.5598 15.8647 11.2896 15.876 8.97538 15.876C6.66117 15.876 6.39148 15.8647 5.47326 15.8225C4.63178 15.7771 4.16753 15.6366 3.86326 15.5182C3.45251 15.3545 3.17094 15.1718 2.86937 14.8702C2.56509 14.566 2.37161 14.2763 2.22245 13.8736C2.10139 13.5731 1.96303 13.1084 1.91817 12.2636C1.88737 11.3573 1.87278 11.0763 1.87278 8.77286C1.87278 6.47054 1.88737 6.18897 1.91817 5.27128C1.96303 4.42656 2.10139 3.96285 2.22245 3.66128C2.37161 3.25 2.56563 2.96896 2.86937 2.66469C3.1704 2.36366 3.45251 2.16909 3.86326 2.01669C4.16753 1.89833 4.62043 1.75781 5.46515 1.71566C6.3823 1.68269 6.65252 1.6708 8.96349 1.6708L8.99916 1.69566ZM8.99916 4.34765C8.4162 4.34744 7.83891 4.4621 7.30028 4.68509C6.76166 4.90809 6.27225 5.23503 5.86003 5.64725C5.44782 6.05946 5.12087 6.54887 4.89788 7.0875C4.67489 7.62612 4.56022 8.20341 4.56044 8.78637C4.56022 9.36934 4.67489 9.94663 4.89788 10.4853C5.12087 11.0239 5.44782 11.5133 5.86003 11.9255C6.27225 12.3377 6.76166 12.6647 7.30028 12.8877C7.83891 13.1106 8.4162 13.2253 8.99916 13.2251C9.58212 13.2253 10.1594 13.1106 10.698 12.8877C11.2367 12.6647 11.7261 12.3377 12.1383 11.9255C12.5505 11.5133 12.8774 11.0239 13.1004 10.4853C13.3234 9.94663 13.4381 9.36934 13.4379 8.78637C13.4381 8.20341 13.3234 7.62612 13.1004 7.0875C12.8774 6.54887 12.5505 6.05946 12.1383 5.64725C11.7261 5.23503 11.2367 4.90809 10.698 4.68509C10.1594 4.4621 9.58212 4.34744 8.99916 4.34765ZM8.99916 11.6686C7.40591 11.6686 6.11694 10.3796 6.11694 8.78637C6.11694 7.19312 7.40591 5.90415 8.99916 5.90415C10.5924 5.90415 11.8814 7.19312 11.8814 8.78637C11.8814 10.3796 10.5924 11.6686 8.99916 11.6686ZM14.6544 4.17038C14.6542 4.44583 14.5445 4.7099 14.3497 4.90457C14.1548 5.09924 13.8906 5.20859 13.6152 5.20859C13.479 5.20859 13.3441 5.18176 13.2183 5.12964C13.0924 5.07752 12.9781 5.00113 12.8818 4.90482C12.7855 4.80852 12.7091 4.69418 12.657 4.56836C12.6049 4.44253 12.578 4.30766 12.578 4.17146C12.578 4.03527 12.6049 3.9004 12.657 3.77457C12.7091 3.64874 12.7855 3.53441 12.8818 3.43811C12.9781 3.3418 13.0924 3.26541 13.2183 3.21329C13.3441 3.16116 13.479 3.13434 13.6152 3.13434C14.1864 3.13434 14.6544 3.59913 14.6544 4.17038Z" fill="#1D2A80"/>
</svg>