<svg width="16" height="13" viewBox="0 0 16 13" fill="none" xmlns="http://www.w3.org/2000/svg">
<path d="M12.7581 0.767578C13.345 0.767578 13.9078 1.00071 14.3228 1.41569C14.7378 1.83067 14.9709 2.3935 14.9709 2.98037V10.0613C14.9709 10.6482 14.7378 11.211 14.3228 11.626C13.9078 12.0409 13.345 12.2741 12.7581 12.2741H3.02184C2.43497 12.2741 1.87214 12.0409 1.45716 11.626C1.04218 11.211 0.809052 10.6482 0.809052 10.0613V2.98037C0.809052 2.3935 1.04218 1.83067 1.45716 1.41569C1.87214 1.00071 2.43497 0.767578 3.02184 0.767578H12.7581ZM14.0858 4.27352L8.11479 7.78743C8.05834 7.82057 7.99524 7.84078 7.93004 7.8466C7.86484 7.85241 7.79916 7.84369 7.73773 7.82106L7.66515 7.78743L1.69417 4.27529V10.0613C1.69417 10.4134 1.83405 10.7511 2.08303 11.0001C2.33202 11.2491 2.66972 11.389 3.02184 11.389H12.7581C13.1102 11.389 13.4479 11.2491 13.6969 11.0001C13.9459 10.7511 14.0858 10.4134 14.0858 10.0613V4.27352ZM12.7581 1.65269H3.02184C2.66972 1.65269 2.33202 1.79257 2.08303 2.04156C1.83405 2.29055 1.69417 2.62825 1.69417 2.98037V3.24767L7.88997 6.89258L14.0858 3.2459V2.98037C14.0858 2.62825 13.9459 2.29055 13.6969 2.04156C13.4479 1.79257 13.1102 1.65269 12.7581 1.65269Z" fill="#1D2A80" stroke="#1D2A80" stroke-width="0.571617"/>
</svg>