<svg width="209" height="51" viewBox="0 0 209 51" fill="none" xmlns="http://www.w3.org/2000/svg">
<path d="M11.9362 0.801039L9.51224 9.16504H8.28824L6.34424 2.43304L4.32824 9.16504L3.11624 9.17704L0.776244 0.801039H1.94024L3.76424 7.89304L5.78024 0.801039H7.00424L8.92424 7.86904L10.7602 0.801039H11.9362ZM19.1313 5.62504C19.1313 5.83304 19.1193 6.05304 19.0953 6.28504H13.8393C13.8793 6.93304 14.0993 7.44104 14.4993 7.80904C14.9073 8.16904 15.3993 8.34904 15.9753 8.34904C16.4473 8.34904 16.8393 8.24104 17.1513 8.02504C17.4713 7.80104 17.6953 7.50504 17.8233 7.13704H18.9993C18.8233 7.76904 18.4713 8.28504 17.9433 8.68504C17.4153 9.07704 16.7593 9.27304 15.9753 9.27304C15.3513 9.27304 14.7913 9.13304 14.2953 8.85304C13.8073 8.57304 13.4233 8.17704 13.1433 7.66504C12.8633 7.14504 12.7233 6.54504 12.7233 5.86504C12.7233 5.18504 12.8593 4.58904 13.1313 4.07704C13.4033 3.56504 13.7833 3.17304 14.2713 2.90104C14.7673 2.62104 15.3353 2.48104 15.9753 2.48104C16.5993 2.48104 17.1513 2.61704 17.6313 2.88904C18.1113 3.16104 18.4793 3.53704 18.7353 4.01704C18.9993 4.48904 19.1313 5.02504 19.1313 5.62504ZM18.0033 5.39704C18.0033 4.98104 17.9113 4.62504 17.7273 4.32904C17.5433 4.02504 17.2913 3.79704 16.9713 3.64504C16.6593 3.48504 16.3113 3.40504 15.9273 3.40504C15.3753 3.40504 14.9033 3.58104 14.5113 3.93304C14.1273 4.28504 13.9073 4.77304 13.8513 5.39704H18.0033ZM23.3639 5.85304C23.3639 5.18104 23.4999 4.59304 23.7719 4.08904C24.0439 3.57704 24.4159 3.18104 24.8879 2.90104C25.3679 2.62104 25.8999 2.48104 26.4839 2.48104C27.0599 2.48104 27.5599 2.60504 27.9839 2.85304C28.4079 3.10104 28.7239 3.41304 28.9319 3.78904V2.58904H30.0359V9.16504H28.9319V7.94104C28.7159 8.32504 28.3919 8.64504 27.9599 8.90104C27.5359 9.14904 27.0399 9.27304 26.4719 9.27304C25.8879 9.27304 25.3599 9.12904 24.8879 8.84104C24.4159 8.55304 24.0439 8.14904 23.7719 7.62904C23.4999 7.10904 23.3639 6.51704 23.3639 5.85304ZM28.9319 5.86504C28.9319 5.36904 28.8319 4.93704 28.6319 4.56904C28.4319 4.20104 28.1599 3.92104 27.8159 3.72904C27.4799 3.52904 27.1079 3.42904 26.6999 3.42904C26.2919 3.42904 25.9199 3.52504 25.5839 3.71704C25.2479 3.90904 24.9799 4.18904 24.7799 4.55704C24.5799 4.92504 24.4799 5.35704 24.4799 5.85304C24.4799 6.35704 24.5799 6.79704 24.7799 7.17304C24.9799 7.54104 25.2479 7.82504 25.5839 8.02504C25.9199 8.21704 26.2919 8.31304 26.6999 8.31304C27.1079 8.31304 27.4799 8.21704 27.8159 8.02504C28.1599 7.82504 28.4319 7.54104 28.6319 7.17304C28.8319 6.79704 28.9319 6.36104 28.9319 5.86504ZM32.9733 3.65704C33.1653 3.28104 33.4373 2.98904 33.7893 2.78104C34.1493 2.57304 34.5853 2.46904 35.0973 2.46904V3.59704H34.8093C33.5853 3.59704 32.9733 4.26104 32.9733 5.58904V9.16504H31.8813V2.58904H32.9733V3.65704ZM42.3578 5.62504C42.3578 5.83304 42.3458 6.05304 42.3218 6.28504H37.0658C37.1058 6.93304 37.3258 7.44104 37.7258 7.80904C38.1338 8.16904 38.6258 8.34904 39.2018 8.34904C39.6738 8.34904 40.0658 8.24104 40.3778 8.02504C40.6978 7.80104 40.9218 7.50504 41.0498 7.13704H42.2258C42.0498 7.76904 41.6978 8.28504 41.1698 8.68504C40.6418 9.07704 39.9858 9.27304 39.2018 9.27304C38.5778 9.27304 38.0178 9.13304 37.5218 8.85304C37.0338 8.57304 36.6498 8.17704 36.3698 7.66504C36.0898 7.14504 35.9498 6.54504 35.9498 5.86504C35.9498 5.18504 36.0858 4.58904 36.3578 4.07704C36.6298 3.56504 37.0098 3.17304 37.4978 2.90104C37.9938 2.62104 38.5618 2.48104 39.2018 2.48104C39.8258 2.48104 40.3778 2.61704 40.8578 2.88904C41.3378 3.16104 41.7058 3.53704 41.9618 4.01704C42.2258 4.48904 42.3578 5.02504 42.3578 5.62504ZM41.2298 5.39704C41.2298 4.98104 41.1378 4.62504 40.9538 4.32904C40.7698 4.02504 40.5178 3.79704 40.1978 3.64504C39.8858 3.48504 39.5378 3.40504 39.1538 3.40504C38.6018 3.40504 38.1298 3.58104 37.7378 3.93304C37.3538 4.28504 37.1338 4.77304 37.0778 5.39704H41.2298ZM46.5905 5.85304C46.5905 5.18104 46.7265 4.59304 46.9985 4.08904C47.2705 3.57704 47.6425 3.18104 48.1145 2.90104C48.5945 2.62104 49.1265 2.48104 49.7105 2.48104C50.2865 2.48104 50.7865 2.60504 51.2105 2.85304C51.6345 3.10104 51.9505 3.41304 52.1585 3.78904V2.58904H53.2625V9.16504H52.1585V7.94104C51.9425 8.32504 51.6185 8.64504 51.1865 8.90104C50.7625 9.14904 50.2665 9.27304 49.6985 9.27304C49.1145 9.27304 48.5865 9.12904 48.1145 8.84104C47.6425 8.55304 47.2705 8.14904 46.9985 7.62904C46.7265 7.10904 46.5905 6.51704 46.5905 5.85304ZM52.1585 5.86504C52.1585 5.36904 52.0585 4.93704 51.8585 4.56904C51.6585 4.20104 51.3865 3.92104 51.0425 3.72904C50.7065 3.52904 50.3345 3.42904 49.9265 3.42904C49.5185 3.42904 49.1465 3.52504 48.8105 3.71704C48.4745 3.90904 48.2065 4.18904 48.0065 4.55704C47.8065 4.92504 47.7065 5.35704 47.7065 5.85304C47.7065 6.35704 47.8065 6.79704 48.0065 7.17304C48.2065 7.54104 48.4745 7.82504 48.8105 8.02504C49.1465 8.21704 49.5185 8.31304 49.9265 8.31304C50.3345 8.31304 50.7065 8.21704 51.0425 8.02504C51.3865 7.82504 51.6585 7.54104 51.8585 7.17304C52.0585 6.79704 52.1585 6.36104 52.1585 5.86504ZM56.1998 0.285039V9.16504H55.1078V0.285039H56.1998ZM66.821 2.58904L64.769 9.16504H63.641L62.057 3.94504L60.473 9.16504H59.345L57.281 2.58904H58.397L59.909 8.10904L61.541 2.58904H62.657L64.253 8.12104L65.741 2.58904H66.821ZM67.4967 5.85304C67.4967 5.18104 67.6327 4.59304 67.9047 4.08904C68.1767 3.57704 68.5487 3.18104 69.0207 2.90104C69.5007 2.62104 70.0327 2.48104 70.6167 2.48104C71.1927 2.48104 71.6927 2.60504 72.1167 2.85304C72.5407 3.10104 72.8567 3.41304 73.0647 3.78904V2.58904H74.1687V9.16504H73.0647V7.94104C72.8487 8.32504 72.5247 8.64504 72.0927 8.90104C71.6687 9.14904 71.1727 9.27304 70.6047 9.27304C70.0207 9.27304 69.4927 9.12904 69.0207 8.84104C68.5487 8.55304 68.1767 8.14904 67.9047 7.62904C67.6327 7.10904 67.4967 6.51704 67.4967 5.85304ZM73.0647 5.86504C73.0647 5.36904 72.9647 4.93704 72.7647 4.56904C72.5647 4.20104 72.2927 3.92104 71.9487 3.72904C71.6127 3.52904 71.2407 3.42904 70.8327 3.42904C70.4247 3.42904 70.0527 3.52504 69.7167 3.71704C69.3807 3.90904 69.1127 4.18904 68.9127 4.55704C68.7127 4.92504 68.6127 5.35704 68.6127 5.85304C68.6127 6.35704 68.7127 6.79704 68.9127 7.17304C69.1127 7.54104 69.3807 7.82504 69.7167 8.02504C70.0527 8.21704 70.4247 8.31304 70.8327 8.31304C71.2407 8.31304 71.6127 8.21704 71.9487 8.02504C72.2927 7.82504 72.5647 7.54104 72.7647 7.17304C72.9647 6.79704 73.0647 6.36104 73.0647 5.86504ZM81.6781 2.58904L77.7181 12.261H76.5901L77.8861 9.09304L75.2341 2.58904H76.4461L78.5101 7.91704L80.5501 2.58904H81.6781ZM85.1038 9.27304C84.5998 9.27304 84.1478 9.18904 83.7478 9.02104C83.3478 8.84504 83.0318 8.60504 82.7998 8.30104C82.5678 7.98904 82.4398 7.63304 82.4158 7.23304H83.5438C83.5758 7.56104 83.7278 7.82904 83.9998 8.03704C84.2798 8.24504 84.6438 8.34904 85.0918 8.34904C85.5078 8.34904 85.8358 8.25704 86.0758 8.07304C86.3158 7.88904 86.4358 7.65704 86.4358 7.37704C86.4358 7.08904 86.3078 6.87704 86.0518 6.74104C85.7958 6.59704 85.3998 6.45704 84.8638 6.32104C84.3758 6.19304 83.9758 6.06504 83.6638 5.93704C83.3598 5.80104 83.0958 5.60504 82.8718 5.34904C82.6558 5.08504 82.5478 4.74104 82.5478 4.31704C82.5478 3.98104 82.6478 3.67304 82.8478 3.39304C83.0478 3.11304 83.3318 2.89304 83.6998 2.73304C84.0678 2.56504 84.4878 2.48104 84.9598 2.48104C85.6878 2.48104 86.2758 2.66504 86.7238 3.03304C87.1718 3.40104 87.4118 3.90504 87.4438 4.54504H86.3518C86.3278 4.20104 86.1878 3.92504 85.9318 3.71704C85.6838 3.50904 85.3478 3.40504 84.9238 3.40504C84.5318 3.40504 84.2198 3.48904 83.9878 3.65704C83.7558 3.82504 83.6398 4.04504 83.6398 4.31704C83.6398 4.53304 83.7078 4.71304 83.8438 4.85704C83.9878 4.99304 84.1638 5.10504 84.3718 5.19304C84.5878 5.27304 84.8838 5.36504 85.2598 5.46904C85.7318 5.59704 86.1158 5.72504 86.4118 5.85304C86.7078 5.97304 86.9598 6.15704 87.1678 6.40504C87.3838 6.65304 87.4958 6.97704 87.5038 7.37704C87.5038 7.73704 87.4038 8.06104 87.2038 8.34904C87.0038 8.63704 86.7198 8.86504 86.3518 9.03304C85.9918 9.19304 85.5758 9.27304 85.1038 9.27304ZM95.1126 9.27304C94.4966 9.27304 93.9366 9.13304 93.4326 8.85304C92.9366 8.57304 92.5446 8.17704 92.2566 7.66504C91.9766 7.14504 91.8366 6.54504 91.8366 5.86504C91.8366 5.19304 91.9806 4.60104 92.2686 4.08904C92.5646 3.56904 92.9646 3.17304 93.4686 2.90104C93.9726 2.62104 94.5366 2.48104 95.1606 2.48104C95.7846 2.48104 96.3486 2.62104 96.8526 2.90104C97.3566 3.17304 97.7526 3.56504 98.0406 4.07704C98.3366 4.58904 98.4846 5.18504 98.4846 5.86504C98.4846 6.54504 98.3326 7.14504 98.0286 7.66504C97.7326 8.17704 97.3286 8.57304 96.8166 8.85304C96.3046 9.13304 95.7366 9.27304 95.1126 9.27304ZM95.1126 8.31304C95.5046 8.31304 95.8726 8.22104 96.2166 8.03704C96.5606 7.85304 96.8366 7.57704 97.0446 7.20904C97.2606 6.84104 97.3686 6.39304 97.3686 5.86504C97.3686 5.33704 97.2646 4.88904 97.0566 4.52104C96.8486 4.15304 96.5766 3.88104 96.2406 3.70504C95.9046 3.52104 95.5406 3.42904 95.1486 3.42904C94.7486 3.42904 94.3806 3.52104 94.0446 3.70504C93.7166 3.88104 93.4526 4.15304 93.2526 4.52104C93.0526 4.88904 92.9526 5.33704 92.9526 5.86504C92.9526 6.40104 93.0486 6.85304 93.2406 7.22104C93.4406 7.58904 93.7046 7.86504 94.0326 8.04904C94.3606 8.22504 94.7206 8.31304 95.1126 8.31304ZM103.124 2.46904C103.924 2.46904 104.572 2.71304 105.068 3.20104C105.564 3.68104 105.812 4.37704 105.812 5.28904V9.16504H104.732V5.44504C104.732 4.78904 104.568 4.28904 104.24 3.94504C103.912 3.59304 103.464 3.41704 102.896 3.41704C102.32 3.41704 101.86 3.59704 101.516 3.95704C101.18 4.31704 101.012 4.84104 101.012 5.52904V9.16504H99.9203V2.58904H101.012V3.52504C101.228 3.18904 101.52 2.92904 101.888 2.74504C102.264 2.56104 102.676 2.46904 103.124 2.46904ZM114.059 2.46904C114.555 2.46904 115.003 2.57704 115.403 2.79304C115.803 3.00104 116.115 3.31704 116.339 3.74104C116.571 4.16504 116.687 4.68104 116.687 5.28904V9.16504H115.607V5.44504C115.607 4.78904 115.443 4.28904 115.115 3.94504C114.787 3.59304 114.339 3.41704 113.771 3.41704C113.195 3.41704 112.735 3.59704 112.391 3.95704C112.055 4.31704 111.887 4.84104 111.887 5.52904V9.16504H110.795V0.285039H111.887V3.52504C112.103 3.18904 112.399 2.92904 112.775 2.74504C113.159 2.56104 113.587 2.46904 114.059 2.46904ZM118.063 5.85304C118.063 5.18104 118.199 4.59304 118.471 4.08904C118.743 3.57704 119.115 3.18104 119.587 2.90104C120.067 2.62104 120.599 2.48104 121.183 2.48104C121.759 2.48104 122.259 2.60504 122.683 2.85304C123.107 3.10104 123.423 3.41304 123.631 3.78904V2.58904H124.735V9.16504H123.631V7.94104C123.415 8.32504 123.091 8.64504 122.659 8.90104C122.235 9.14904 121.739 9.27304 121.171 9.27304C120.587 9.27304 120.059 9.12904 119.587 8.84104C119.115 8.55304 118.743 8.14904 118.471 7.62904C118.199 7.10904 118.063 6.51704 118.063 5.85304ZM123.631 5.86504C123.631 5.36904 123.531 4.93704 123.331 4.56904C123.131 4.20104 122.859 3.92104 122.515 3.72904C122.179 3.52904 121.807 3.42904 121.399 3.42904C120.991 3.42904 120.619 3.52504 120.283 3.71704C119.947 3.90904 119.679 4.18904 119.479 4.55704C119.279 4.92504 119.179 5.35704 119.179 5.85304C119.179 6.35704 119.279 6.79704 119.479 7.17304C119.679 7.54104 119.947 7.82504 120.283 8.02504C120.619 8.21704 120.991 8.31304 121.399 8.31304C121.807 8.31304 122.179 8.21704 122.515 8.02504C122.859 7.82504 123.131 7.54104 123.331 7.17304C123.531 6.79704 123.631 6.36104 123.631 5.86504ZM129.784 2.46904C130.584 2.46904 131.232 2.71304 131.728 3.20104C132.224 3.68104 132.472 4.37704 132.472 5.28904V9.16504H131.392V5.44504C131.392 4.78904 131.228 4.28904 130.9 3.94504C130.572 3.59304 130.124 3.41704 129.556 3.41704C128.98 3.41704 128.52 3.59704 128.176 3.95704C127.84 4.31704 127.672 4.84104 127.672 5.52904V9.16504H126.58V2.58904H127.672V3.52504C127.888 3.18904 128.18 2.92904 128.548 2.74504C128.924 2.56104 129.336 2.46904 129.784 2.46904ZM133.848 5.85304C133.848 5.18104 133.984 4.59304 134.256 4.08904C134.528 3.57704 134.9 3.18104 135.372 2.90104C135.852 2.62104 136.388 2.48104 136.98 2.48104C137.492 2.48104 137.968 2.60104 138.408 2.84104C138.848 3.07304 139.184 3.38104 139.416 3.76504V0.285039H140.52V9.16504H139.416V7.92904C139.2 8.32104 138.88 8.64504 138.456 8.90104C138.032 9.14904 137.536 9.27304 136.968 9.27304C136.384 9.27304 135.852 9.12904 135.372 8.84104C134.9 8.55304 134.528 8.14904 134.256 7.62904C133.984 7.10904 133.848 6.51704 133.848 5.85304ZM139.416 5.86504C139.416 5.36904 139.316 4.93704 139.116 4.56904C138.916 4.20104 138.644 3.92104 138.3 3.72904C137.964 3.52904 137.592 3.42904 137.184 3.42904C136.776 3.42904 136.404 3.52504 136.068 3.71704C135.732 3.90904 135.464 4.18904 135.264 4.55704C135.064 4.92504 134.964 5.35704 134.964 5.85304C134.964 6.35704 135.064 6.79704 135.264 7.17304C135.464 7.54104 135.732 7.82504 136.068 8.02504C136.404 8.21704 136.776 8.31304 137.184 8.31304C137.592 8.31304 137.964 8.21704 138.3 8.02504C138.644 7.82504 138.916 7.54104 139.116 7.17304C139.316 6.79704 139.416 6.36104 139.416 5.86504ZM146.897 3.48904V7.36504C146.897 7.68504 146.965 7.91304 147.101 8.04904C147.237 8.17704 147.473 8.24104 147.809 8.24104H148.613V9.16504H147.629C147.021 9.16504 146.565 9.02504 146.261 8.74504C145.957 8.46504 145.805 8.00504 145.805 7.36504V3.48904H144.953V2.58904H145.805V0.933038H146.897V2.58904H148.613V3.48904H146.897ZM152.804 9.27304C152.188 9.27304 151.628 9.13304 151.124 8.85304C150.628 8.57304 150.236 8.17704 149.948 7.66504C149.668 7.14504 149.528 6.54504 149.528 5.86504C149.528 5.19304 149.672 4.60104 149.96 4.08904C150.256 3.56904 150.656 3.17304 151.16 2.90104C151.664 2.62104 152.228 2.48104 152.852 2.48104C153.476 2.48104 154.04 2.62104 154.544 2.90104C155.048 3.17304 155.444 3.56504 155.732 4.07704C156.028 4.58904 156.176 5.18504 156.176 5.86504C156.176 6.54504 156.024 7.14504 155.72 7.66504C155.424 8.17704 155.02 8.57304 154.508 8.85304C153.996 9.13304 153.428 9.27304 152.804 9.27304ZM152.804 8.31304C153.196 8.31304 153.564 8.22104 153.908 8.03704C154.252 7.85304 154.528 7.57704 154.736 7.20904C154.952 6.84104 155.06 6.39304 155.06 5.86504C155.06 5.33704 154.956 4.88904 154.748 4.52104C154.54 4.15304 154.268 3.88104 153.932 3.70504C153.596 3.52104 153.232 3.42904 152.84 3.42904C152.44 3.42904 152.072 3.52104 151.736 3.70504C151.408 3.88104 151.144 4.15304 150.944 4.52104C150.744 4.88904 150.644 5.33704 150.644 5.86504C150.644 6.40104 150.74 6.85304 150.932 7.22104C151.132 7.58904 151.396 7.86504 151.724 8.04904C152.052 8.22504 152.412 8.31304 152.804 8.31304ZM164.075 2.46904C164.571 2.46904 165.019 2.57704 165.419 2.79304C165.819 3.00104 166.131 3.31704 166.355 3.74104C166.587 4.16504 166.703 4.68104 166.703 5.28904V9.16504H165.623V5.44504C165.623 4.78904 165.459 4.28904 165.131 3.94504C164.803 3.59304 164.355 3.41704 163.787 3.41704C163.211 3.41704 162.751 3.59704 162.407 3.95704C162.071 4.31704 161.903 4.84104 161.903 5.52904V9.16504H160.811V0.285039H161.903V3.52504C162.119 3.18904 162.415 2.92904 162.791 2.74504C163.175 2.56104 163.603 2.46904 164.075 2.46904ZM174.487 5.62504C174.487 5.83304 174.475 6.05304 174.451 6.28504H169.195C169.235 6.93304 169.455 7.44104 169.855 7.80904C170.263 8.16904 170.755 8.34904 171.331 8.34904C171.803 8.34904 172.195 8.24104 172.507 8.02504C172.827 7.80104 173.051 7.50504 173.179 7.13704H174.355C174.179 7.76904 173.827 8.28504 173.299 8.68504C172.771 9.07704 172.115 9.27304 171.331 9.27304C170.707 9.27304 170.147 9.13304 169.651 8.85304C169.163 8.57304 168.779 8.17704 168.499 7.66504C168.219 7.14504 168.079 6.54504 168.079 5.86504C168.079 5.18504 168.215 4.58904 168.487 4.07704C168.759 3.56504 169.139 3.17304 169.627 2.90104C170.123 2.62104 170.691 2.48104 171.331 2.48104C171.955 2.48104 172.507 2.61704 172.987 2.88904C173.467 3.16104 173.835 3.53704 174.091 4.01704C174.355 4.48904 174.487 5.02504 174.487 5.62504ZM173.359 5.39704C173.359 4.98104 173.267 4.62504 173.083 4.32904C172.899 4.02504 172.647 3.79704 172.327 3.64504C172.015 3.48504 171.667 3.40504 171.283 3.40504C170.731 3.40504 170.259 3.58104 169.867 3.93304C169.483 4.28504 169.263 4.77304 169.207 5.39704H173.359ZM177.02 0.285039V9.16504H175.928V0.285039H177.02ZM179.973 3.80104C180.189 3.42504 180.509 3.11304 180.933 2.86504C181.365 2.60904 181.865 2.48104 182.433 2.48104C183.017 2.48104 183.545 2.62104 184.017 2.90104C184.497 3.18104 184.873 3.57704 185.145 4.08904C185.417 4.59304 185.553 5.18104 185.553 5.85304C185.553 6.51704 185.417 7.10904 185.145 7.62904C184.873 8.14904 184.497 8.55304 184.017 8.84104C183.545 9.12904 183.017 9.27304 182.433 9.27304C181.873 9.27304 181.377 9.14904 180.945 8.90104C180.521 8.64504 180.197 8.32904 179.973 7.95304V12.285H178.881V2.58904H179.973V3.80104ZM184.437 5.85304C184.437 5.35704 184.337 4.92504 184.137 4.55704C183.937 4.18904 183.665 3.90904 183.321 3.71704C182.985 3.52504 182.613 3.42904 182.205 3.42904C181.805 3.42904 181.433 3.52904 181.089 3.72904C180.753 3.92104 180.481 4.20504 180.273 4.58104C180.073 4.94904 179.973 5.37704 179.973 5.86504C179.973 6.36104 180.073 6.79704 180.273 7.17304C180.481 7.54104 180.753 7.82504 181.089 8.02504C181.433 8.21704 181.805 8.31304 182.205 8.31304C182.613 8.31304 182.985 8.21704 183.321 8.02504C183.665 7.82504 183.937 7.54104 184.137 7.17304C184.337 6.79704 184.437 6.35704 184.437 5.85304ZM193.058 9.27304C192.442 9.27304 191.882 9.13304 191.378 8.85304C190.882 8.57304 190.49 8.17704 190.202 7.66504C189.922 7.14504 189.782 6.54504 189.782 5.86504C189.782 5.19304 189.926 4.60104 190.214 4.08904C190.51 3.56904 190.91 3.17304 191.414 2.90104C191.918 2.62104 192.482 2.48104 193.106 2.48104C193.73 2.48104 194.294 2.62104 194.798 2.90104C195.302 3.17304 195.698 3.56504 195.986 4.07704C196.282 4.58904 196.43 5.18504 196.43 5.86504C196.43 6.54504 196.278 7.14504 195.974 7.66504C195.678 8.17704 195.274 8.57304 194.762 8.85304C194.25 9.13304 193.682 9.27304 193.058 9.27304ZM193.058 8.31304C193.45 8.31304 193.818 8.22104 194.162 8.03704C194.506 7.85304 194.782 7.57704 194.99 7.20904C195.206 6.84104 195.314 6.39304 195.314 5.86504C195.314 5.33704 195.21 4.88904 195.002 4.52104C194.794 4.15304 194.522 3.88104 194.186 3.70504C193.85 3.52104 193.486 3.42904 193.094 3.42904C192.694 3.42904 192.326 3.52104 191.99 3.70504C191.662 3.88104 191.398 4.15304 191.198 4.52104C190.998 4.88904 190.898 5.33704 190.898 5.86504C190.898 6.40104 190.994 6.85304 191.186 7.22104C191.386 7.58904 191.65 7.86504 191.978 8.04904C192.306 8.22504 192.666 8.31304 193.058 8.31304ZM203.698 2.58904V9.16504H202.606V8.19304C202.398 8.52904 202.106 8.79304 201.73 8.98504C201.362 9.16904 200.954 9.26104 200.506 9.26104C199.994 9.26104 199.534 9.15704 199.126 8.94904C198.718 8.73304 198.394 8.41304 198.154 7.98904C197.922 7.56504 197.806 7.04904 197.806 6.44104V2.58904H198.886V6.29704C198.886 6.94504 199.05 7.44504 199.378 7.79704C199.706 8.14104 200.154 8.31304 200.722 8.31304C201.306 8.31304 201.766 8.13304 202.102 7.77304C202.438 7.41304 202.606 6.88904 202.606 6.20104V2.58904H203.698ZM206.633 3.65704C206.825 3.28104 207.097 2.98904 207.449 2.78104C207.809 2.57304 208.245 2.46904 208.757 2.46904V3.59704H208.469C207.245 3.59704 206.633 4.26104 206.633 5.58904V9.16504H205.541V2.58904H206.633V3.65704ZM1.01624 23.977C1.01624 23.161 1.20024 22.429 1.56824 21.781C1.93624 21.125 2.43624 20.613 3.06824 20.245C3.70824 19.877 4.41624 19.693 5.19224 19.693C6.10424 19.693 6.90024 19.913 7.58024 20.353C8.26024 20.793 8.75624 21.417 9.06824 22.225H7.76024C7.52824 21.721 7.19224 21.333 6.75224 21.061C6.32024 20.789 5.80024 20.653 5.19224 20.653C4.60824 20.653 4.08424 20.789 3.62024 21.061C3.15624 21.333 2.79224 21.721 2.52824 22.225C2.26424 22.721 2.13224 23.305 2.13224 23.977C2.13224 24.641 2.26424 25.225 2.52824 25.729C2.79224 26.225 3.15624 26.609 3.62024 26.881C4.08424 27.153 4.60824 27.289 5.19224 27.289C5.80024 27.289 6.32024 27.157 6.75224 26.893C7.19224 26.621 7.52824 26.233 7.76024 25.729H9.06824C8.75624 26.529 8.26024 27.149 7.58024 27.589C6.90024 28.021 6.10424 28.237 5.19224 28.237C4.41624 28.237 3.70824 28.057 3.06824 27.697C2.43624 27.329 1.93624 26.821 1.56824 26.173C1.20024 25.525 1.01624 24.793 1.01624 23.977ZM11.7858 19.285V28.165H10.6938V19.285H11.7858ZM14.2109 20.521C14.0029 20.521 13.8269 20.449 13.6829 20.305C13.5389 20.161 13.4669 19.985 13.4669 19.777C13.4669 19.569 13.5389 19.393 13.6829 19.249C13.8269 19.105 14.0029 19.033 14.2109 19.033C14.4109 19.033 14.5789 19.105 14.7149 19.249C14.8589 19.393 14.9309 19.569 14.9309 19.777C14.9309 19.985 14.8589 20.161 14.7149 20.305C14.5789 20.449 14.4109 20.521 14.2109 20.521ZM14.7389 21.589V28.165H13.6469V21.589H14.7389ZM22.6 24.625C22.6 24.833 22.588 25.053 22.564 25.285H17.308C17.348 25.933 17.568 26.441 17.968 26.809C18.376 27.169 18.868 27.349 19.444 27.349C19.916 27.349 20.308 27.241 20.62 27.025C20.94 26.801 21.164 26.505 21.292 26.137H22.468C22.292 26.769 21.94 27.285 21.412 27.685C20.884 28.077 20.228 28.273 19.444 28.273C18.82 28.273 18.26 28.133 17.764 27.853C17.276 27.573 16.892 27.177 16.612 26.665C16.332 26.145 16.192 25.545 16.192 24.865C16.192 24.185 16.328 23.589 16.6 23.077C16.872 22.565 17.252 22.173 17.74 21.901C18.236 21.621 18.804 21.481 19.444 21.481C20.068 21.481 20.62 21.617 21.1 21.889C21.58 22.161 21.948 22.537 22.204 23.017C22.468 23.489 22.6 24.025 22.6 24.625ZM21.472 24.397C21.472 23.981 21.38 23.625 21.196 23.329C21.012 23.025 20.76 22.797 20.44 22.645C20.128 22.485 19.78 22.405 19.396 22.405C18.844 22.405 18.372 22.581 17.98 22.933C17.596 23.285 17.376 23.773 17.32 24.397H21.472ZM27.2454 21.469C28.0454 21.469 28.6934 21.713 29.1894 22.201C29.6854 22.681 29.9334 23.377 29.9334 24.289V28.165H28.8534V24.445C28.8534 23.789 28.6894 23.289 28.3614 22.945C28.0334 22.593 27.5854 22.417 27.0174 22.417C26.4414 22.417 25.9814 22.597 25.6374 22.957C25.3014 23.317 25.1334 23.841 25.1334 24.529V28.165H24.0414V21.589H25.1334V22.525C25.3494 22.189 25.6414 21.929 26.0094 21.745C26.3854 21.561 26.7974 21.469 27.2454 21.469ZM33.0492 22.489V26.365C33.0492 26.685 33.1172 26.913 33.2532 27.049C33.3892 27.177 33.6252 27.241 33.9612 27.241H34.7652V28.165H33.7812C33.1732 28.165 32.7172 28.025 32.4132 27.745C32.1092 27.465 31.9572 27.005 31.9572 26.365V22.489H31.1052V21.589H31.9572V19.933H33.0492V21.589H34.7652V22.489H33.0492ZM38.4163 28.273C37.9123 28.273 37.4603 28.189 37.0603 28.021C36.6603 27.845 36.3443 27.605 36.1123 27.301C35.8803 26.989 35.7523 26.633 35.7283 26.233H36.8563C36.8883 26.561 37.0403 26.829 37.3123 27.037C37.5923 27.245 37.9563 27.349 38.4043 27.349C38.8203 27.349 39.1483 27.257 39.3883 27.073C39.6283 26.889 39.7483 26.657 39.7483 26.377C39.7483 26.089 39.6203 25.877 39.3643 25.741C39.1083 25.597 38.7123 25.457 38.1763 25.321C37.6883 25.193 37.2883 25.065 36.9763 24.937C36.6723 24.801 36.4083 24.605 36.1843 24.349C35.9683 24.085 35.8603 23.741 35.8603 23.317C35.8603 22.981 35.9603 22.673 36.1603 22.393C36.3603 22.113 36.6443 21.893 37.0123 21.733C37.3803 21.565 37.8003 21.481 38.2723 21.481C39.0003 21.481 39.5883 21.665 40.0363 22.033C40.4843 22.401 40.7243 22.905 40.7563 23.545H39.6643C39.6403 23.201 39.5003 22.925 39.2443 22.717C38.9963 22.509 38.6603 22.405 38.2363 22.405C37.8443 22.405 37.5323 22.489 37.3003 22.657C37.0683 22.825 36.9523 23.045 36.9523 23.317C36.9523 23.533 37.0203 23.713 37.1563 23.857C37.3003 23.993 37.4763 24.105 37.6843 24.193C37.9003 24.273 38.1963 24.365 38.5723 24.469C39.0443 24.597 39.4283 24.725 39.7243 24.853C40.0203 24.973 40.2723 25.157 40.4803 25.405C40.6963 25.653 40.8083 25.977 40.8163 26.377C40.8163 26.737 40.7163 27.061 40.5163 27.349C40.3163 27.637 40.0323 27.865 39.6643 28.033C39.3043 28.193 38.8883 28.273 38.4163 28.273ZM45.1491 24.853C45.1491 24.181 45.2851 23.593 45.5571 23.089C45.8291 22.577 46.2011 22.181 46.6731 21.901C47.1531 21.621 47.6851 21.481 48.2691 21.481C48.8451 21.481 49.3451 21.605 49.7691 21.853C50.1931 22.101 50.5091 22.413 50.7171 22.789V21.589H51.8211V28.165H50.7171V26.941C50.5011 27.325 50.1771 27.645 49.7451 27.901C49.3211 28.149 48.8251 28.273 48.2571 28.273C47.6731 28.273 47.1451 28.129 46.6731 27.841C46.2011 27.553 45.8291 27.149 45.5571 26.629C45.2851 26.109 45.1491 25.517 45.1491 24.853ZM50.7171 24.865C50.7171 24.369 50.6171 23.937 50.4171 23.569C50.2171 23.201 49.9451 22.921 49.6011 22.729C49.2651 22.529 48.8931 22.429 48.4851 22.429C48.0771 22.429 47.7051 22.525 47.3691 22.717C47.0331 22.909 46.7651 23.189 46.5651 23.557C46.3651 23.925 46.2651 24.357 46.2651 24.853C46.2651 25.357 46.3651 25.797 46.5651 26.173C46.7651 26.541 47.0331 26.825 47.3691 27.025C47.7051 27.217 48.0771 27.313 48.4851 27.313C48.8931 27.313 49.2651 27.217 49.6011 27.025C49.9451 26.825 50.2171 26.541 50.4171 26.173C50.6171 25.797 50.7171 25.361 50.7171 24.865ZM56.8704 21.469C57.6704 21.469 58.3184 21.713 58.8144 22.201C59.3104 22.681 59.5584 23.377 59.5584 24.289V28.165H58.4784V24.445C58.4784 23.789 58.3144 23.289 57.9864 22.945C57.6584 22.593 57.2104 22.417 56.6424 22.417C56.0664 22.417 55.6064 22.597 55.2624 22.957C54.9264 23.317 54.7584 23.841 54.7584 24.529V28.165H53.6664V21.589H54.7584V22.525C54.9744 22.189 55.2664 21.929 55.6344 21.745C56.0104 21.561 56.4224 21.469 56.8704 21.469ZM60.9342 24.853C60.9342 24.181 61.0702 23.593 61.3422 23.089C61.6142 22.577 61.9862 22.181 62.4582 21.901C62.9382 21.621 63.4742 21.481 64.0662 21.481C64.5782 21.481 65.0542 21.601 65.4942 21.841C65.9342 22.073 66.2702 22.381 66.5022 22.765V19.285H67.6062V28.165H66.5022V26.929C66.2862 27.321 65.9662 27.645 65.5422 27.901C65.1182 28.149 64.6222 28.273 64.0542 28.273C63.4702 28.273 62.9382 28.129 62.4582 27.841C61.9862 27.553 61.6142 27.149 61.3422 26.629C61.0702 26.109 60.9342 25.517 60.9342 24.853ZM66.5022 24.865C66.5022 24.369 66.4022 23.937 66.2022 23.569C66.0022 23.201 65.7302 22.921 65.3862 22.729C65.0502 22.529 64.6782 22.429 64.2702 22.429C63.8622 22.429 63.4902 22.525 63.1542 22.717C62.8182 22.909 62.5502 23.189 62.3502 23.557C62.1502 23.925 62.0502 24.357 62.0502 24.853C62.0502 25.357 62.1502 25.797 62.3502 26.173C62.5502 26.541 62.8182 26.825 63.1542 27.025C63.4902 27.217 63.8622 27.313 64.2702 27.313C64.6782 27.313 65.0502 27.217 65.3862 27.025C65.7302 26.825 66.0022 26.541 66.2022 26.173C66.4022 25.797 66.5022 25.361 66.5022 24.865ZM75.3028 28.249C74.7508 28.249 74.2548 28.153 73.8148 27.961C73.3828 27.761 73.0428 27.489 72.7948 27.145C72.5468 26.793 72.4188 26.389 72.4108 25.933H73.5748C73.6148 26.325 73.7748 26.657 74.0548 26.929C74.3428 27.193 74.7588 27.325 75.3028 27.325C75.8228 27.325 76.2308 27.197 76.5268 26.941C76.8308 26.677 76.9828 26.341 76.9828 25.933C76.9828 25.613 76.8948 25.353 76.7188 25.153C76.5428 24.953 76.3228 24.801 76.0588 24.697C75.7948 24.593 75.4388 24.481 74.9908 24.361C74.4388 24.217 73.9948 24.073 73.6588 23.929C73.3308 23.785 73.0468 23.561 72.8068 23.257C72.5748 22.945 72.4588 22.529 72.4588 22.009C72.4588 21.553 72.5748 21.149 72.8068 20.797C73.0388 20.445 73.3628 20.173 73.7788 19.981C74.2028 19.789 74.6868 19.693 75.2308 19.693C76.0148 19.693 76.6548 19.889 77.1508 20.281C77.6548 20.673 77.9388 21.193 78.0028 21.841H76.8028C76.7628 21.521 76.5948 21.241 76.2988 21.001C76.0028 20.753 75.6108 20.629 75.1228 20.629C74.6668 20.629 74.2948 20.749 74.0068 20.989C73.7188 21.221 73.5748 21.549 73.5748 21.973C73.5748 22.277 73.6588 22.525 73.8268 22.717C74.0028 22.909 74.2148 23.057 74.4628 23.161C74.7188 23.257 75.0748 23.369 75.5308 23.497C76.0828 23.649 76.5268 23.801 76.8628 23.953C77.1988 24.097 77.4868 24.325 77.7268 24.637C77.9668 24.941 78.0868 25.357 78.0868 25.885C78.0868 26.293 77.9788 26.677 77.7628 27.037C77.5468 27.397 77.2268 27.689 76.8028 27.913C76.3788 28.137 75.8788 28.249 75.3028 28.249ZM82.5618 28.273C81.9458 28.273 81.3858 28.133 80.8818 27.853C80.3858 27.573 79.9938 27.177 79.7058 26.665C79.4258 26.145 79.2858 25.545 79.2858 24.865C79.2858 24.193 79.4298 23.601 79.7178 23.089C80.0138 22.569 80.4138 22.173 80.9178 21.901C81.4218 21.621 81.9858 21.481 82.6098 21.481C83.2338 21.481 83.7978 21.621 84.3018 21.901C84.8058 22.173 85.2018 22.565 85.4898 23.077C85.7858 23.589 85.9338 24.185 85.9338 24.865C85.9338 25.545 85.7818 26.145 85.4778 26.665C85.1818 27.177 84.7778 27.573 84.2658 27.853C83.7538 28.133 83.1858 28.273 82.5618 28.273ZM82.5618 27.313C82.9538 27.313 83.3218 27.221 83.6658 27.037C84.0098 26.853 84.2858 26.577 84.4938 26.209C84.7098 25.841 84.8178 25.393 84.8178 24.865C84.8178 24.337 84.7138 23.889 84.5058 23.521C84.2978 23.153 84.0258 22.881 83.6898 22.705C83.3538 22.521 82.9898 22.429 82.5978 22.429C82.1978 22.429 81.8298 22.521 81.4938 22.705C81.1658 22.881 80.9018 23.153 80.7018 23.521C80.5018 23.889 80.4018 24.337 80.4018 24.865C80.4018 25.401 80.4978 25.853 80.6898 26.221C80.8898 26.589 81.1538 26.865 81.4818 27.049C81.8098 27.225 82.1698 27.313 82.5618 27.313ZM88.4616 19.285V28.165H87.3696V19.285H88.4616ZM92.7707 27.157L94.8107 21.589H95.9747L93.3947 28.165H92.1227L89.5427 21.589H90.7187L92.7707 27.157ZM103.049 24.625C103.049 24.833 103.037 25.053 103.013 25.285H97.7572C97.7972 25.933 98.0172 26.441 98.4172 26.809C98.8252 27.169 99.3172 27.349 99.8932 27.349C100.365 27.349 100.757 27.241 101.069 27.025C101.389 26.801 101.613 26.505 101.741 26.137H102.917C102.741 26.769 102.389 27.285 101.861 27.685C101.333 28.077 100.677 28.273 99.8932 28.273C99.2692 28.273 98.7092 28.133 98.2132 27.853C97.7252 27.573 97.3412 27.177 97.0612 26.665C96.7812 26.145 96.6412 25.545 96.6412 24.865C96.6412 24.185 96.7772 23.589 97.0492 23.077C97.3212 22.565 97.7012 22.173 98.1892 21.901C98.6852 21.621 99.2532 21.481 99.8932 21.481C100.517 21.481 101.069 21.617 101.549 21.889C102.029 22.161 102.397 22.537 102.653 23.017C102.917 23.489 103.049 24.025 103.049 24.625ZM101.921 24.397C101.921 23.981 101.829 23.625 101.645 23.329C101.461 23.025 101.209 22.797 100.889 22.645C100.577 22.485 100.229 22.405 99.8452 22.405C99.2932 22.405 98.8212 22.581 98.4292 22.933C98.0452 23.285 97.8252 23.773 97.7692 24.397H101.921ZM107.282 24.853C107.282 24.181 107.418 23.593 107.69 23.089C107.962 22.577 108.334 22.181 108.806 21.901C109.286 21.621 109.818 21.481 110.402 21.481C110.978 21.481 111.478 21.605 111.902 21.853C112.326 22.101 112.642 22.413 112.85 22.789V21.589H113.954V28.165H112.85V26.941C112.634 27.325 112.31 27.645 111.878 27.901C111.454 28.149 110.958 28.273 110.39 28.273C109.806 28.273 109.278 28.129 108.806 27.841C108.334 27.553 107.962 27.149 107.69 26.629C107.418 26.109 107.282 25.517 107.282 24.853ZM112.85 24.865C112.85 24.369 112.75 23.937 112.55 23.569C112.35 23.201 112.078 22.921 111.734 22.729C111.398 22.529 111.026 22.429 110.618 22.429C110.21 22.429 109.838 22.525 109.502 22.717C109.166 22.909 108.898 23.189 108.698 23.557C108.498 23.925 108.398 24.357 108.398 24.853C108.398 25.357 108.498 25.797 108.698 26.173C108.898 26.541 109.166 26.825 109.502 27.025C109.838 27.217 110.21 27.313 110.618 27.313C111.026 27.313 111.398 27.217 111.734 27.025C112.078 26.825 112.35 26.541 112.55 26.173C112.75 25.797 112.85 25.361 112.85 24.865ZM119.003 21.469C119.803 21.469 120.451 21.713 120.947 22.201C121.443 22.681 121.691 23.377 121.691 24.289V28.165H120.611V24.445C120.611 23.789 120.447 23.289 120.119 22.945C119.791 22.593 119.343 22.417 118.775 22.417C118.199 22.417 117.739 22.597 117.395 22.957C117.059 23.317 116.891 23.841 116.891 24.529V28.165H115.799V21.589H116.891V22.525C117.107 22.189 117.399 21.929 117.767 21.745C118.143 21.561 118.555 21.469 119.003 21.469ZM129.139 21.589L125.179 31.261H124.051L125.347 28.093L122.695 21.589H123.907L125.971 26.917L128.011 21.589H129.139ZM139.028 22.249C139.028 22.945 138.788 23.525 138.308 23.989C137.836 24.445 137.112 24.673 136.136 24.673H134.528V28.165H133.436V19.801H136.136C137.08 19.801 137.796 20.029 138.284 20.485C138.78 20.941 139.028 21.529 139.028 22.249ZM136.136 23.773C136.744 23.773 137.192 23.641 137.48 23.377C137.768 23.113 137.912 22.737 137.912 22.249C137.912 21.217 137.32 20.701 136.136 20.701H134.528V23.773H136.136ZM141.477 22.657C141.669 22.281 141.941 21.989 142.293 21.781C142.653 21.573 143.089 21.469 143.601 21.469V22.597H143.313C142.089 22.597 141.477 23.261 141.477 24.589V28.165H140.385V21.589H141.477V22.657ZM147.73 28.273C147.114 28.273 146.554 28.133 146.05 27.853C145.554 27.573 145.162 27.177 144.874 26.665C144.594 26.145 144.454 25.545 144.454 24.865C144.454 24.193 144.598 23.601 144.886 23.089C145.182 22.569 145.582 22.173 146.086 21.901C146.59 21.621 147.154 21.481 147.778 21.481C148.402 21.481 148.966 21.621 149.47 21.901C149.974 22.173 150.37 22.565 150.658 23.077C150.954 23.589 151.102 24.185 151.102 24.865C151.102 25.545 150.95 26.145 150.646 26.665C150.35 27.177 149.946 27.573 149.434 27.853C148.922 28.133 148.354 28.273 147.73 28.273ZM147.73 27.313C148.122 27.313 148.49 27.221 148.834 27.037C149.178 26.853 149.454 26.577 149.662 26.209C149.878 25.841 149.986 25.393 149.986 24.865C149.986 24.337 149.882 23.889 149.674 23.521C149.466 23.153 149.194 22.881 148.858 22.705C148.522 22.521 148.158 22.429 147.766 22.429C147.366 22.429 146.998 22.521 146.662 22.705C146.334 22.881 146.07 23.153 145.87 23.521C145.67 23.889 145.57 24.337 145.57 24.865C145.57 25.401 145.666 25.853 145.858 26.221C146.058 26.589 146.322 26.865 146.65 27.049C146.978 27.225 147.338 27.313 147.73 27.313ZM153.63 22.813C153.854 22.421 154.182 22.101 154.614 21.853C155.046 21.605 155.538 21.481 156.09 21.481C156.682 21.481 157.214 21.621 157.686 21.901C158.158 22.181 158.53 22.577 158.802 23.089C159.074 23.593 159.21 24.181 159.21 24.853C159.21 25.517 159.074 26.109 158.802 26.629C158.53 27.149 158.154 27.553 157.674 27.841C157.202 28.129 156.674 28.273 156.09 28.273C155.522 28.273 155.022 28.149 154.59 27.901C154.166 27.653 153.846 27.337 153.63 26.953V28.165H152.538V19.285H153.63V22.813ZM158.094 24.853C158.094 24.357 157.994 23.925 157.794 23.557C157.594 23.189 157.322 22.909 156.978 22.717C156.642 22.525 156.27 22.429 155.862 22.429C155.462 22.429 155.09 22.529 154.746 22.729C154.41 22.921 154.138 23.205 153.93 23.581C153.73 23.949 153.63 24.377 153.63 24.865C153.63 25.361 153.73 25.797 153.93 26.173C154.138 26.541 154.41 26.825 154.746 27.025C155.09 27.217 155.462 27.313 155.862 27.313C156.27 27.313 156.642 27.217 156.978 27.025C157.322 26.825 157.594 26.541 157.794 26.173C157.994 25.797 158.094 25.357 158.094 24.853ZM161.739 19.285V28.165H160.647V19.285H161.739ZM169.6 24.625C169.6 24.833 169.588 25.053 169.564 25.285H164.308C164.348 25.933 164.568 26.441 164.968 26.809C165.376 27.169 165.868 27.349 166.444 27.349C166.916 27.349 167.308 27.241 167.62 27.025C167.94 26.801 168.164 26.505 168.292 26.137H169.468C169.292 26.769 168.94 27.285 168.412 27.685C167.884 28.077 167.228 28.273 166.444 28.273C165.82 28.273 165.26 28.133 164.764 27.853C164.276 27.573 163.892 27.177 163.612 26.665C163.332 26.145 163.192 25.545 163.192 24.865C163.192 24.185 163.328 23.589 163.6 23.077C163.872 22.565 164.252 22.173 164.74 21.901C165.236 21.621 165.804 21.481 166.444 21.481C167.068 21.481 167.62 21.617 168.1 21.889C168.58 22.161 168.948 22.537 169.204 23.017C169.468 23.489 169.6 24.025 169.6 24.625ZM168.472 24.397C168.472 23.981 168.38 23.625 168.196 23.329C168.012 23.025 167.76 22.797 167.44 22.645C167.128 22.485 166.78 22.405 166.396 22.405C165.844 22.405 165.372 22.581 164.98 22.933C164.596 23.285 164.376 23.773 164.32 24.397H168.472ZM178.949 21.469C179.461 21.469 179.917 21.577 180.317 21.793C180.717 22.001 181.033 22.317 181.265 22.741C181.497 23.165 181.613 23.681 181.613 24.289V28.165H180.533V24.445C180.533 23.789 180.369 23.289 180.041 22.945C179.721 22.593 179.285 22.417 178.733 22.417C178.165 22.417 177.713 22.601 177.377 22.969C177.041 23.329 176.873 23.853 176.873 24.541V28.165H175.793V24.445C175.793 23.789 175.629 23.289 175.301 22.945C174.981 22.593 174.545 22.417 173.993 22.417C173.425 22.417 172.973 22.601 172.637 22.969C172.301 23.329 172.133 23.853 172.133 24.541V28.165H171.041V21.589H172.133V22.537C172.349 22.193 172.637 21.929 172.997 21.745C173.365 21.561 173.769 21.469 174.209 21.469C174.761 21.469 175.249 21.593 175.673 21.841C176.097 22.089 176.413 22.453 176.621 22.933C176.805 22.469 177.109 22.109 177.533 21.853C177.957 21.597 178.429 21.469 178.949 21.469ZM185.733 28.273C185.229 28.273 184.777 28.189 184.377 28.021C183.977 27.845 183.661 27.605 183.429 27.301C183.197 26.989 183.069 26.633 183.045 26.233H184.173C184.205 26.561 184.357 26.829 184.629 27.037C184.909 27.245 185.273 27.349 185.721 27.349C186.137 27.349 186.465 27.257 186.705 27.073C186.945 26.889 187.065 26.657 187.065 26.377C187.065 26.089 186.937 25.877 186.681 25.741C186.425 25.597 186.029 25.457 185.493 25.321C185.005 25.193 184.605 25.065 184.293 24.937C183.989 24.801 183.725 24.605 183.501 24.349C183.285 24.085 183.177 23.741 183.177 23.317C183.177 22.981 183.277 22.673 183.477 22.393C183.677 22.113 183.961 21.893 184.329 21.733C184.697 21.565 185.117 21.481 185.589 21.481C186.317 21.481 186.905 21.665 187.353 22.033C187.801 22.401 188.041 22.905 188.073 23.545H186.981C186.957 23.201 186.817 22.925 186.561 22.717C186.313 22.509 185.977 22.405 185.553 22.405C185.161 22.405 184.849 22.489 184.617 22.657C184.385 22.825 184.269 23.045 184.269 23.317C184.269 23.533 184.337 23.713 184.473 23.857C184.617 23.993 184.793 24.105 185.001 24.193C185.217 24.273 185.513 24.365 185.889 24.469C186.361 24.597 186.745 24.725 187.041 24.853C187.337 24.973 187.589 25.157 187.797 25.405C188.013 25.653 188.125 25.977 188.133 26.377C188.133 26.737 188.033 27.061 187.833 27.349C187.633 27.637 187.349 27.865 186.981 28.033C186.621 28.193 186.205 28.273 185.733 28.273ZM2.75624 41.489V45.365C2.75624 45.685 2.82424 45.913 2.96024 46.049C3.09624 46.177 3.33224 46.241 3.66824 46.241H4.47224V47.165H3.48824C2.88024 47.165 2.42424 47.025 2.12024 46.745C1.81624 46.465 1.66424 46.005 1.66424 45.365V41.489H0.812244V40.589H1.66424V38.933H2.75624V40.589H4.47224V41.489H2.75624ZM9.05934 40.469C9.55534 40.469 10.0033 40.577 10.4033 40.793C10.8033 41.001 11.1153 41.317 11.3393 41.741C11.5713 42.165 11.6873 42.681 11.6873 43.289V47.165H10.6073V43.445C10.6073 42.789 10.4433 42.289 10.1153 41.945C9.78734 41.593 9.33934 41.417 8.77134 41.417C8.19534 41.417 7.73534 41.597 7.39134 41.957C7.05534 42.317 6.88734 42.841 6.88734 43.529V47.165H5.79534V38.285H6.88734V41.525C7.10334 41.189 7.39934 40.929 7.77534 40.745C8.15934 40.561 8.58734 40.469 9.05934 40.469ZM13.0631 43.853C13.0631 43.181 13.1991 42.593 13.4711 42.089C13.7431 41.577 14.1151 41.181 14.5871 40.901C15.0671 40.621 15.5991 40.481 16.1831 40.481C16.7591 40.481 17.2591 40.605 17.6831 40.853C18.1071 41.101 18.4231 41.413 18.6311 41.789V40.589H19.7351V47.165H18.6311V45.941C18.4151 46.325 18.0911 46.645 17.6591 46.901C17.2351 47.149 16.7391 47.273 16.1711 47.273C15.5871 47.273 15.0591 47.129 14.5871 46.841C14.1151 46.553 13.7431 46.149 13.4711 45.629C13.1991 45.109 13.0631 44.517 13.0631 43.853ZM18.6311 43.865C18.6311 43.369 18.5311 42.937 18.3311 42.569C18.1311 42.201 17.8591 41.921 17.5151 41.729C17.1791 41.529 16.8071 41.429 16.3991 41.429C15.9911 41.429 15.6191 41.525 15.2831 41.717C14.9471 41.909 14.6791 42.189 14.4791 42.557C14.2791 42.925 14.1791 43.357 14.1791 43.853C14.1791 44.357 14.2791 44.797 14.4791 45.173C14.6791 45.541 14.9471 45.825 15.2831 46.025C15.6191 46.217 15.9911 46.313 16.3991 46.313C16.8071 46.313 17.1791 46.217 17.5151 46.025C17.8591 45.825 18.1311 45.541 18.3311 45.173C18.5311 44.797 18.6311 44.361 18.6311 43.865ZM22.9125 41.489V45.365C22.9125 45.685 22.9805 45.913 23.1165 46.049C23.2525 46.177 23.4885 46.241 23.8245 46.241H24.6285V47.165H23.6445C23.0365 47.165 22.5805 47.025 22.2765 46.745C21.9725 46.465 21.8205 46.005 21.8205 45.365V41.489H20.9685V40.589H21.8205V38.933H22.9125V40.589H24.6285V41.489H22.9125ZM37.0588 40.469C37.5708 40.469 38.0268 40.577 38.4268 40.793C38.8268 41.001 39.1428 41.317 39.3748 41.741C39.6068 42.165 39.7228 42.681 39.7228 43.289V47.165H38.6428V43.445C38.6428 42.789 38.4788 42.289 38.1508 41.945C37.8308 41.593 37.3948 41.417 36.8428 41.417C36.2748 41.417 35.8228 41.601 35.4868 41.969C35.1508 42.329 34.9828 42.853 34.9828 43.541V47.165H33.9028V43.445C33.9028 42.789 33.7388 42.289 33.4108 41.945C33.0908 41.593 32.6548 41.417 32.1028 41.417C31.5348 41.417 31.0828 41.601 30.7468 41.969C30.4108 42.329 30.2428 42.853 30.2428 43.541V47.165H29.1508V40.589H30.2428V41.537C30.4588 41.193 30.7468 40.929 31.1068 40.745C31.4748 40.561 31.8788 40.469 32.3188 40.469C32.8708 40.469 33.3588 40.593 33.7828 40.841C34.2068 41.089 34.5228 41.453 34.7308 41.933C34.9148 41.469 35.2188 41.109 35.6428 40.853C36.0668 40.597 36.5388 40.469 37.0588 40.469ZM41.1061 43.853C41.1061 43.181 41.2421 42.593 41.5141 42.089C41.7861 41.577 42.1581 41.181 42.6301 40.901C43.1101 40.621 43.6421 40.481 44.2261 40.481C44.8021 40.481 45.3021 40.605 45.7261 40.853C46.1501 41.101 46.4661 41.413 46.6741 41.789V40.589H47.7781V47.165H46.6741V45.941C46.4581 46.325 46.1341 46.645 45.7021 46.901C45.2781 47.149 44.7821 47.273 44.2141 47.273C43.6301 47.273 43.1021 47.129 42.6301 46.841C42.1581 46.553 41.7861 46.149 41.5141 45.629C41.2421 45.109 41.1061 44.517 41.1061 43.853ZM46.6741 43.865C46.6741 43.369 46.5741 42.937 46.3741 42.569C46.1741 42.201 45.9021 41.921 45.5581 41.729C45.2221 41.529 44.8501 41.429 44.4421 41.429C44.0341 41.429 43.6621 41.525 43.3261 41.717C42.9901 41.909 42.7221 42.189 42.5221 42.557C42.3221 42.925 42.2221 43.357 42.2221 43.853C42.2221 44.357 42.3221 44.797 42.5221 45.173C42.7221 45.541 42.9901 45.825 43.3261 46.025C43.6621 46.217 44.0341 46.313 44.4421 46.313C44.8501 46.313 45.2221 46.217 45.5581 46.025C45.9021 45.825 46.1741 45.541 46.3741 45.173C46.5741 44.797 46.6741 44.361 46.6741 43.865ZM55.2875 40.589L51.3275 50.261H50.1995L51.4955 47.093L48.8435 40.589H50.0555L52.1195 45.917L54.1595 40.589H55.2875ZM59.1764 43.853C59.1764 43.181 59.3124 42.593 59.5844 42.089C59.8564 41.577 60.2284 41.181 60.7004 40.901C61.1804 40.621 61.7124 40.481 62.2964 40.481C62.8724 40.481 63.3724 40.605 63.7964 40.853C64.2204 41.101 64.5364 41.413 64.7444 41.789V40.589H65.8484V47.165H64.7444V45.941C64.5284 46.325 64.2044 46.645 63.7724 46.901C63.3484 47.149 62.8524 47.273 62.2844 47.273C61.7004 47.273 61.1724 47.129 60.7004 46.841C60.2284 46.553 59.8564 46.149 59.5844 45.629C59.3124 45.109 59.1764 44.517 59.1764 43.853ZM64.7444 43.865C64.7444 43.369 64.6444 42.937 64.4444 42.569C64.2444 42.201 63.9724 41.921 63.6284 41.729C63.2924 41.529 62.9204 41.429 62.5124 41.429C62.1044 41.429 61.7324 41.525 61.3964 41.717C61.0604 41.909 60.7924 42.189 60.5924 42.557C60.3924 42.925 60.2924 43.357 60.2924 43.853C60.2924 44.357 60.3924 44.797 60.5924 45.173C60.7924 45.541 61.0604 45.825 61.3964 46.025C61.7324 46.217 62.1044 46.313 62.5124 46.313C62.9204 46.313 63.2924 46.217 63.6284 46.025C63.9724 45.825 64.2444 45.541 64.4444 45.173C64.6444 44.797 64.7444 44.361 64.7444 43.865ZM68.7858 41.657C68.9778 41.281 69.2498 40.989 69.6018 40.781C69.9618 40.573 70.3978 40.469 70.9098 40.469V41.597H70.6218C69.3978 41.597 68.7858 42.261 68.7858 43.589V47.165H67.6938V40.589H68.7858V41.657ZM72.7343 39.521C72.5263 39.521 72.3503 39.449 72.2063 39.305C72.0623 39.161 71.9903 38.985 71.9903 38.777C71.9903 38.569 72.0623 38.393 72.2063 38.249C72.3503 38.105 72.5263 38.033 72.7343 38.033C72.9343 38.033 73.1023 38.105 73.2383 38.249C73.3823 38.393 73.4543 38.569 73.4543 38.777C73.4543 38.985 73.3823 39.161 73.2383 39.305C73.1023 39.449 72.9343 39.521 72.7343 39.521ZM73.2623 40.589V47.165H72.1703V40.589H73.2623ZM77.4515 47.273C76.9475 47.273 76.4955 47.189 76.0955 47.021C75.6955 46.845 75.3795 46.605 75.1475 46.301C74.9155 45.989 74.7875 45.633 74.7635 45.233H75.8915C75.9235 45.561 76.0755 45.829 76.3475 46.037C76.6275 46.245 76.9915 46.349 77.4395 46.349C77.8555 46.349 78.1835 46.257 78.4235 46.073C78.6635 45.889 78.7835 45.657 78.7835 45.377C78.7835 45.089 78.6555 44.877 78.3995 44.741C78.1435 44.597 77.7475 44.457 77.2115 44.321C76.7235 44.193 76.3235 44.065 76.0115 43.937C75.7075 43.801 75.4435 43.605 75.2195 43.349C75.0035 43.085 74.8955 42.741 74.8955 42.317C74.8955 41.981 74.9955 41.673 75.1955 41.393C75.3955 41.113 75.6795 40.893 76.0475 40.733C76.4155 40.565 76.8355 40.481 77.3075 40.481C78.0355 40.481 78.6235 40.665 79.0715 41.033C79.5195 41.401 79.7595 41.905 79.7915 42.545H78.6995C78.6755 42.201 78.5355 41.925 78.2795 41.717C78.0315 41.509 77.6955 41.405 77.2715 41.405C76.8795 41.405 76.5675 41.489 76.3355 41.657C76.1035 41.825 75.9875 42.045 75.9875 42.317C75.9875 42.533 76.0555 42.713 76.1915 42.857C76.3355 42.993 76.5115 43.105 76.7195 43.193C76.9355 43.273 77.2315 43.365 77.6075 43.469C78.0795 43.597 78.4635 43.725 78.7595 43.853C79.0555 43.973 79.3075 44.157 79.5155 44.405C79.7315 44.653 79.8435 44.977 79.8515 45.377C79.8515 45.737 79.7515 46.061 79.5515 46.349C79.3515 46.637 79.0675 46.865 78.6995 47.033C78.3395 47.193 77.9235 47.273 77.4515 47.273ZM87.393 43.625C87.393 43.833 87.381 44.053 87.357 44.285H82.101C82.141 44.933 82.361 45.441 82.761 45.809C83.169 46.169 83.661 46.349 84.237 46.349C84.709 46.349 85.101 46.241 85.413 46.025C85.733 45.801 85.957 45.505 86.085 45.137H87.261C87.085 45.769 86.733 46.285 86.205 46.685C85.677 47.077 85.021 47.273 84.237 47.273C83.613 47.273 83.053 47.133 82.557 46.853C82.069 46.573 81.685 46.177 81.405 45.665C81.125 45.145 80.985 44.545 80.985 43.865C80.985 43.185 81.121 42.589 81.393 42.077C81.665 41.565 82.045 41.173 82.533 40.901C83.029 40.621 83.597 40.481 84.237 40.481C84.861 40.481 85.413 40.617 85.893 40.889C86.373 41.161 86.741 41.537 86.997 42.017C87.261 42.489 87.393 43.025 87.393 43.625ZM86.265 43.397C86.265 42.981 86.173 42.625 85.989 42.329C85.805 42.025 85.553 41.797 85.233 41.645C84.921 41.485 84.573 41.405 84.189 41.405C83.637 41.405 83.165 41.581 82.773 41.933C82.389 42.285 82.169 42.773 82.113 43.397H86.265ZM93.1256 38.801V47.165H92.0336V38.801H93.1256ZM102.895 40.469C103.407 40.469 103.863 40.577 104.263 40.793C104.663 41.001 104.979 41.317 105.211 41.741C105.443 42.165 105.559 42.681 105.559 43.289V47.165H104.479V43.445C104.479 42.789 104.315 42.289 103.987 41.945C103.667 41.593 103.231 41.417 102.679 41.417C102.111 41.417 101.659 41.601 101.323 41.969C100.987 42.329 100.819 42.853 100.819 43.541V47.165H99.7387V43.445C99.7387 42.789 99.5747 42.289 99.2467 41.945C98.9267 41.593 98.4907 41.417 97.9387 41.417C97.3707 41.417 96.9187 41.601 96.5827 41.969C96.2467 42.329 96.0787 42.853 96.0787 43.541V47.165H94.9867V40.589H96.0787V41.537C96.2947 41.193 96.5827 40.929 96.9427 40.745C97.3107 40.561 97.7147 40.469 98.1547 40.469C98.7067 40.469 99.1947 40.593 99.6187 40.841C100.043 41.089 100.359 41.453 100.567 41.933C100.751 41.469 101.055 41.109 101.479 40.853C101.903 40.597 102.375 40.469 102.895 40.469ZM115.258 40.469C115.77 40.469 116.226 40.577 116.626 40.793C117.026 41.001 117.342 41.317 117.574 41.741C117.806 42.165 117.922 42.681 117.922 43.289V47.165H116.842V43.445C116.842 42.789 116.678 42.289 116.35 41.945C116.03 41.593 115.594 41.417 115.042 41.417C114.474 41.417 114.022 41.601 113.686 41.969C113.35 42.329 113.182 42.853 113.182 43.541V47.165H112.102V43.445C112.102 42.789 111.938 42.289 111.61 41.945C111.29 41.593 110.854 41.417 110.302 41.417C109.734 41.417 109.282 41.601 108.946 41.969C108.61 42.329 108.442 42.853 108.442 43.541V47.165H107.35V40.589H108.442V41.537C108.658 41.193 108.946 40.929 109.306 40.745C109.674 40.561 110.078 40.469 110.518 40.469C111.07 40.469 111.558 40.593 111.982 40.841C112.406 41.089 112.722 41.453 112.93 41.933C113.114 41.469 113.418 41.109 113.842 40.853C114.266 40.597 114.738 40.469 115.258 40.469ZM125.713 43.625C125.713 43.833 125.701 44.053 125.677 44.285H120.421C120.461 44.933 120.681 45.441 121.081 45.809C121.489 46.169 121.981 46.349 122.557 46.349C123.029 46.349 123.421 46.241 123.733 46.025C124.053 45.801 124.277 45.505 124.405 45.137H125.581C125.405 45.769 125.053 46.285 124.525 46.685C123.997 47.077 123.341 47.273 122.557 47.273C121.933 47.273 121.373 47.133 120.877 46.853C120.389 46.573 120.005 46.177 119.725 45.665C119.445 45.145 119.305 44.545 119.305 43.865C119.305 43.185 119.441 42.589 119.713 42.077C119.985 41.565 120.365 41.173 120.853 40.901C121.349 40.621 121.917 40.481 122.557 40.481C123.181 40.481 123.733 40.617 124.213 40.889C124.693 41.161 125.061 41.537 125.317 42.017C125.581 42.489 125.713 43.025 125.713 43.625ZM124.585 43.397C124.585 42.981 124.493 42.625 124.309 42.329C124.125 42.025 123.873 41.797 123.553 41.645C123.241 41.485 122.893 41.405 122.509 41.405C121.957 41.405 121.485 41.581 121.093 41.933C120.709 42.285 120.489 42.773 120.433 43.397H124.585ZM126.747 43.853C126.747 43.181 126.883 42.593 127.155 42.089C127.427 41.577 127.799 41.181 128.271 40.901C128.751 40.621 129.287 40.481 129.879 40.481C130.391 40.481 130.867 40.601 131.307 40.841C131.747 41.073 132.083 41.381 132.315 41.765V38.285H133.419V47.165H132.315V45.929C132.099 46.321 131.779 46.645 131.355 46.901C130.931 47.149 130.435 47.273 129.867 47.273C129.283 47.273 128.751 47.129 128.271 46.841C127.799 46.553 127.427 46.149 127.155 45.629C126.883 45.109 126.747 44.517 126.747 43.853ZM132.315 43.865C132.315 43.369 132.215 42.937 132.015 42.569C131.815 42.201 131.543 41.921 131.199 41.729C130.863 41.529 130.491 41.429 130.083 41.429C129.675 41.429 129.303 41.525 128.967 41.717C128.631 41.909 128.363 42.189 128.163 42.557C127.963 42.925 127.863 43.357 127.863 43.853C127.863 44.357 127.963 44.797 128.163 45.173C128.363 45.541 128.631 45.825 128.967 46.025C129.303 46.217 129.675 46.313 130.083 46.313C130.491 46.313 130.863 46.217 131.199 46.025C131.543 45.825 131.815 45.541 132.015 45.173C132.215 44.797 132.315 44.361 132.315 43.865ZM135.828 39.521C135.62 39.521 135.444 39.449 135.3 39.305C135.156 39.161 135.084 38.985 135.084 38.777C135.084 38.569 135.156 38.393 135.3 38.249C135.444 38.105 135.62 38.033 135.828 38.033C136.028 38.033 136.196 38.105 136.332 38.249C136.476 38.393 136.548 38.569 136.548 38.777C136.548 38.985 136.476 39.161 136.332 39.305C136.196 39.449 136.028 39.521 135.828 39.521ZM136.356 40.589V47.165H135.264V40.589H136.356ZM137.809 43.853C137.809 43.181 137.945 42.593 138.217 42.089C138.489 41.577 138.861 41.181 139.333 40.901C139.813 40.621 140.345 40.481 140.929 40.481C141.505 40.481 142.005 40.605 142.429 40.853C142.853 41.101 143.169 41.413 143.377 41.789V40.589H144.481V47.165H143.377V45.941C143.161 46.325 142.837 46.645 142.405 46.901C141.981 47.149 141.485 47.273 140.917 47.273C140.333 47.273 139.805 47.129 139.333 46.841C138.861 46.553 138.489 46.149 138.217 45.629C137.945 45.109 137.809 44.517 137.809 43.853ZM143.377 43.865C143.377 43.369 143.277 42.937 143.077 42.569C142.877 42.201 142.605 41.921 142.261 41.729C141.925 41.529 141.553 41.429 141.145 41.429C140.737 41.429 140.365 41.525 140.029 41.717C139.693 41.909 139.425 42.189 139.225 42.557C139.025 42.925 138.925 43.357 138.925 43.853C138.925 44.357 139.025 44.797 139.225 45.173C139.425 45.541 139.693 45.825 140.029 46.025C140.365 46.217 140.737 46.313 141.145 46.313C141.553 46.313 141.925 46.217 142.261 46.025C142.605 45.825 142.877 45.541 143.077 45.173C143.277 44.797 143.377 44.361 143.377 43.865ZM147.659 41.489V45.365C147.659 45.685 147.727 45.913 147.863 46.049C147.999 46.177 148.235 46.241 148.571 46.241H149.375V47.165H148.391C147.783 47.165 147.327 47.025 147.023 46.745C146.719 46.465 146.567 46.005 146.567 45.365V41.489H145.715V40.589H146.567V38.933H147.659V40.589H149.375V41.489H147.659ZM156.698 43.625C156.698 43.833 156.686 44.053 156.662 44.285H151.406C151.446 44.933 151.666 45.441 152.066 45.809C152.474 46.169 152.966 46.349 153.542 46.349C154.014 46.349 154.406 46.241 154.718 46.025C155.038 45.801 155.262 45.505 155.39 45.137H156.566C156.39 45.769 156.038 46.285 155.51 46.685C154.982 47.077 154.326 47.273 153.542 47.273C152.918 47.273 152.358 47.133 151.862 46.853C151.374 46.573 150.99 46.177 150.71 45.665C150.43 45.145 150.29 44.545 150.29 43.865C150.29 43.185 150.426 42.589 150.698 42.077C150.97 41.565 151.35 41.173 151.838 40.901C152.334 40.621 152.902 40.481 153.542 40.481C154.166 40.481 154.718 40.617 155.198 40.889C155.678 41.161 156.046 41.537 156.302 42.017C156.566 42.489 156.698 43.025 156.698 43.625ZM155.57 43.397C155.57 42.981 155.478 42.625 155.294 42.329C155.11 42.025 154.858 41.797 154.538 41.645C154.226 41.485 153.878 41.405 153.494 41.405C152.942 41.405 152.47 41.581 152.078 41.933C151.694 42.285 151.474 42.773 151.418 43.397H155.57ZM159.231 38.285V47.165H158.139V38.285H159.231ZM166.756 40.589L162.796 50.261H161.668L162.964 47.093L160.312 40.589H161.524L163.588 45.917L165.628 40.589H166.756ZM168.202 47.237C167.994 47.237 167.818 47.165 167.674 47.021C167.53 46.877 167.458 46.701 167.458 46.493C167.458 46.285 167.53 46.109 167.674 45.965C167.818 45.821 167.994 45.749 168.202 45.749C168.402 45.749 168.57 45.821 168.706 45.965C168.85 46.109 168.922 46.285 168.922 46.493C168.922 46.701 168.85 46.877 168.706 47.021C168.57 47.165 168.402 47.237 168.202 47.237Z" fill="#1D2A80"/>
</svg>
