<svg width="17" height="18" viewBox="0 0 17 18" fill="none" xmlns="http://www.w3.org/2000/svg">
<path fill-rule="evenodd" clip-rule="evenodd" d="M2.58884 2.34178C2.38497 2.34178 2.2197 2.50704 2.2197 2.71091V5.78662H6.40313H15.5086V2.71091C15.5086 2.50704 15.3433 2.34178 15.1394 2.34178H2.58884ZM5.66486 7.26316H2.2197V15.2615C2.2197 15.4654 2.38497 15.6306 2.58884 15.6306H5.66486V7.26316ZM7.1414 15.6306V7.26316H15.5086V15.2615C15.5086 15.4654 15.3433 15.6306 15.1394 15.6306H7.1414ZM0.743164 2.71091V6.52489V15.2615C0.743164 16.2808 1.5695 17.1072 2.58884 17.1072H15.1394C16.1588 17.1072 16.9851 16.2808 16.9851 15.2615V6.52659L16.9851 6.52489L16.9851 6.5232V2.71091C16.9851 1.69157 16.1588 0.865234 15.1394 0.865234H2.58884C1.5695 0.865234 0.743164 1.69157 0.743164 2.71091Z" fill="#1D2A80"/>
</svg>