<svg width="14" height="15" viewBox="0 0 14 15" fill="none" xmlns="http://www.w3.org/2000/svg">
<path fill-rule="evenodd" clip-rule="evenodd" d="M1.00329 5.30563L0.985567 5.25469C0.586898 4.11258 0.247292 2.55186 0.247292 1.61425C0.247292 1.2082 0.579516 0.875977 0.985567 0.875977H3.2004C3.592 0.875977 3.96757 1.03154 4.24447 1.30845C4.52138 1.58536 4.67695 1.96092 4.67695 2.35253V3.82908C4.67695 4.22069 4.52138 4.59625 4.24447 4.87316C3.96757 5.15007 3.592 5.30563 3.2004 5.30563H2.58246C3.17852 6.77404 4.06301 8.108 5.18362 9.22861C6.30423 10.3492 7.63819 11.2337 9.1066 11.8298V11.2118C9.1066 10.8202 9.26217 10.4447 9.53907 10.1678C9.81598 9.89085 10.1915 9.73529 10.5832 9.73529H12.0597C12.4513 9.73529 12.8269 9.89085 13.1038 10.1678C13.3807 10.4447 13.5363 10.8202 13.5363 11.2118V13.4267C13.5363 13.7589 13.1302 14.1649 12.798 14.1649C11.5245 14.1649 10.2583 13.8283 9.1066 13.4267C5.33106 12.0741 2.33809 9.08117 1.00329 5.30563Z" fill="#1D2A80"/>
</svg>