<svg width="11" height="12" viewBox="0 0 11 12" fill="none" xmlns="http://www.w3.org/2000/svg">
<path d="M9.72058 0.294922C10.0505 0.294922 10.3669 0.425981 10.6002 0.659268C10.8335 0.892556 10.9645 1.20896 10.9645 1.53888V4.55865C10.9645 5.03519 10.7752 5.4922 10.4382 5.82915L5.73881 10.5302C5.40154 10.8667 4.94459 11.0557 4.46815 11.0558C3.99172 11.0559 3.53469 10.8671 3.19727 10.5308L0.730363 8.06827C0.393205 7.73152 0.20362 7.27464 0.203308 6.79812C0.202997 6.3216 0.391986 5.86447 0.728704 5.52728L5.4281 0.82236C5.59485 0.655306 5.79287 0.522742 6.01087 0.432243C6.22887 0.341743 6.46256 0.295081 6.69859 0.294922H9.72002H9.72058ZM8.20018 2.23107C8.09128 2.23107 7.98344 2.25252 7.88282 2.2942C7.78221 2.33588 7.69079 2.39696 7.61378 2.47397C7.53677 2.55098 7.47568 2.6424 7.43401 2.74302C7.39233 2.84363 7.37088 2.95147 7.37088 3.06038C7.37088 3.16928 7.39233 3.27712 7.43401 3.37774C7.47568 3.47835 7.53677 3.56978 7.61378 3.64678C7.69079 3.72379 7.78221 3.78488 7.88282 3.82655C7.98344 3.86823 8.09128 3.88968 8.20018 3.88968C8.42013 3.88968 8.63107 3.80231 8.78659 3.64678C8.94212 3.49126 9.02949 3.28032 9.02949 3.06038C9.02949 2.84043 8.94212 2.62949 8.78659 2.47397C8.63107 2.31844 8.42013 2.23107 8.20018 2.23107Z" fill="#2DB9EB"/>
</svg>
