<svg width="21" height="20" viewBox="0 0 21 20" fill="none" xmlns="http://www.w3.org/2000/svg">
<g clip-path="url(#clip0_856_224)">
<path d="M19.9266 2.34081C19.8333 2.32071 19.737 2.3192 19.6431 2.33636C19.5493 2.35352 19.4597 2.38901 19.3796 2.4408C19.2995 2.4926 19.2304 2.55968 19.1762 2.63821C19.122 2.71674 19.0838 2.80518 19.0639 2.89847L18.5364 5.36327C17.4881 3.57648 15.881 2.18424 13.963 1.40126C12.0451 0.61829 9.92279 0.488083 7.92351 1.03072C5.92422 1.57337 4.159 2.75871 2.9001 4.40394C1.6412 6.04917 0.958557 8.06288 0.957458 10.1345C0.957458 10.327 1.03394 10.5117 1.17006 10.6478C1.30619 10.7839 1.49083 10.8604 1.68334 10.8604C1.87586 10.8604 2.06049 10.7839 2.19662 10.6478C2.33275 10.5117 2.40923 10.327 2.40923 10.1345C2.40947 8.37833 2.98855 6.6712 4.05685 5.27732C5.12514 3.88345 6.62308 2.88055 8.31883 2.42384C10.0146 1.96714 11.8136 2.0821 13.4374 2.75092C15.0612 3.41975 16.4193 4.60515 17.3015 6.12366L14.8811 5.60482C14.6978 5.57585 14.5103 5.61823 14.3572 5.72323C14.2041 5.82824 14.0971 5.98789 14.0581 6.16938C14.0192 6.35086 14.0512 6.54038 14.1476 6.69898C14.2441 6.85758 14.3976 6.9732 14.5767 7.02208L18.7311 7.91249C18.8244 7.93258 18.9207 7.93409 19.0146 7.91693C19.1084 7.89977 19.1979 7.86428 19.2781 7.81249C19.3582 7.76069 19.4273 7.69362 19.4815 7.61509C19.5357 7.53656 19.5738 7.44812 19.5938 7.35482L20.4842 3.20041C20.5237 3.01251 20.4872 2.81663 20.3827 2.65555C20.2782 2.49448 20.1142 2.38132 19.9266 2.34081Z" fill="#1D2A80"/>
<path d="M19.1957 9.18295C19.1004 9.18598 19.0066 9.20776 18.9197 9.24707C18.8328 9.28637 18.7545 9.34242 18.6892 9.41201C18.624 9.48159 18.5731 9.56336 18.5395 9.65262C18.5058 9.74189 18.4902 9.83691 18.4933 9.93224C18.5631 12.049 17.7892 14.1068 16.3418 15.653C14.8944 17.1992 12.8921 18.1071 10.7754 18.177C10.6866 18.177 10.5979 18.1813 10.5098 18.1813C9.14907 18.1813 7.81094 17.8335 6.62238 17.1711C5.43383 16.5086 4.4343 15.5533 3.71865 14.396L6.24199 15.0738C6.42797 15.1237 6.62613 15.0976 6.79289 15.0013C6.95964 14.9051 7.08132 14.7465 7.13117 14.5605C7.18101 14.3745 7.15494 14.1764 7.05868 14.0096C6.96241 13.8429 6.80385 13.7212 6.61787 13.6714L2.51522 12.5696C2.42313 12.5449 2.32708 12.5386 2.23255 12.551C2.13802 12.5634 2.04687 12.5944 1.9643 12.642C1.88173 12.6897 1.80936 12.7532 1.75132 12.8288C1.69328 12.9045 1.65071 12.9908 1.62604 13.0829L0.525506 17.1868C0.475661 17.3728 0.501737 17.5709 0.597999 17.7377C0.69426 17.9044 0.852821 18.0261 1.0388 18.0759C1.22478 18.1258 1.42294 18.0997 1.5897 18.0035C1.75645 17.9072 1.87813 17.7486 1.92798 17.5627L2.54418 15.2562C3.39598 16.597 4.57258 17.7011 5.96487 18.4659C7.35716 19.2307 8.92004 19.6315 10.5086 19.6312C10.6127 19.6312 10.7181 19.6312 10.8228 19.6263C13.3242 19.5434 15.6903 18.4702 17.4005 16.6429C19.1108 14.8156 20.0252 12.3838 19.9426 9.88234C19.9358 9.69071 19.8535 9.50956 19.7135 9.37849C19.5736 9.24743 19.3874 9.17713 19.1957 9.18295Z" fill="#1D2A80"/>
</g>
<defs>
<clipPath id="clip0_856_224">
<rect width="20" height="18.9364" fill="white" transform="translate(0.500244 0.696777)"/>
</clipPath>
</defs>
</svg>