<svg width="831" height="657" viewBox="0 0 831 657" fill="none" xmlns="http://www.w3.org/2000/svg">
<path d="M159.791 852.91C159.791 853.527 159.789 854.35 159.533 854.967M572.101 95.5806H442.648C481.238 63.4849 521.365 31.8009 563.027 0.939941L572.101 95.5806ZM572.101 95.5806H715.852H572.101ZM572.101 95.5806C530.691 126.442 490.818 158.126 452.733 190.221L572.101 95.5806ZM707.041 0.939941C660.781 31.3895 615.551 63.0734 571.848 95.5806L707.041 0.939941ZM715.852 95.5806C753.244 71.1287 791.488 47.3581 830.257 24.4373L715.852 95.5806ZM715.852 95.5806H830.257H715.852ZM336.047 190.221C369.794 158.331 405.322 126.647 442.639 95.5806L336.047 190.221ZM336.047 190.221C303.069 221.493 271.879 253.178 242.731 284.861L336.047 190.221ZM336.047 190.221H452.733H336.047ZM452.733 190.221C415.932 221.287 380.909 252.972 347.929 284.861L452.733 190.221ZM716.105 95.5806C669.602 126.03 624.363 157.714 580.912 190.221H724.411L716.105 95.5806ZM724.159 190.221C677.393 220.67 632.154 252.355 588.966 284.861L724.159 190.221ZM724.159 190.221C758.713 167.712 794.447 145.868 830.257 124.818L724.159 190.221ZM724.159 190.221H830.257H724.159ZM242.731 284.861H347.929H242.731ZM242.731 284.861C213.837 316.339 186.987 347.818 162.689 379.502H257.419L242.731 284.861ZM347.929 284.861C380.909 252.972 415.932 221.287 452.733 190.221H580.66C539.513 221.082 499.892 252.766 462.322 284.861H347.929ZM347.929 284.861C315.462 316.134 285.291 347.818 257.419 379.502L347.929 284.861ZM588.966 284.861H731.697H588.966ZM588.966 284.861H462.575C426.279 315.928 392.024 347.612 360.064 379.502H472.155L588.966 284.861ZM588.966 284.861C547.819 315.722 508.713 347.406 471.902 379.502H596.504L588.966 284.861ZM731.697 284.861C684.679 315.311 639.44 346.995 596.504 379.502H738.467L731.697 284.861ZM731.697 284.861C763.676 264.134 796.929 243.971 830.257 224.472L731.697 284.861ZM731.697 284.861H830.257H731.697ZM257.419 379.502H359.808H257.419ZM257.419 379.502C229.548 410.98 204.229 442.664 181.209 474.142H96.693C77.247 505.826 60.0991 537.511 46.2707 568.783L257.419 379.502ZM596.504 379.502H738.477H596.504ZM596.504 379.502C555.61 410.363 517.02 442.047 480.976 474.142L596.504 379.502ZM738.477 379.502C768.227 360.288 799.214 341.622 830.257 323.581L738.477 379.502ZM738.477 379.502H830.257H738.477ZM162.945 379.502C138.392 411.186 116.393 442.664 96.9477 474.142H181.466L162.945 379.502ZM359.81 379.502C328.364 410.775 299.215 442.458 272.621 474.142L359.81 379.502ZM181.466 474.142H272.621H181.466ZM181.466 474.142C158.7 505.826 138.488 537.511 121.596 568.783H46.5273L181.466 474.142ZM272.621 474.142C246.281 505.62 222.493 537.305 201.771 568.783L272.621 474.142ZM471.902 379.502C436.112 410.569 402.625 442.253 371.947 474.142H272.875L471.902 379.502ZM480.976 474.142H603.284H480.976ZM480.976 474.142H371.694C341.266 505.62 313.65 537.099 288.842 568.783H384.083L480.976 474.142ZM480.976 474.142C445.954 505.414 413.74 536.894 384.336 568.783L480.976 474.142ZM738.214 379.502C691.196 409.952 645.704 441.636 603.022 474.142H743.711C771.795 456.274 801.012 438.82 830.257 421.938L738.214 379.502ZM743.974 474.142C696.693 504.386 651.463 536.276 609.286 568.783L743.974 474.142ZM743.974 474.142H603.284C562.895 505.003 524.811 536.688 490.05 568.783L743.974 474.142ZM743.974 474.142H830.257H743.974ZM121.341 568.783H201.771H121.341ZM121.341 568.783H46.2717C31.933 600.672 20.913 632.356 13.2137 663.424L121.341 568.783ZM121.341 568.783C103.937 600.672 89.5985 632.356 78.5795 663.424L121.341 568.783ZM201.771 568.783C181.049 600.467 163.136 632.15 148.798 663.424L201.771 568.783ZM201.771 568.783H289.096H201.771ZM202.027 568.783H289.352H202.027ZM384.336 568.783H490.05H384.336ZM384.336 568.783H289.096H384.336ZM384.336 568.783C355.444 600.261 329.359 631.945 306.849 663.424L384.336 568.783ZM490.05 568.783H609.286H490.05ZM490.05 568.783C456.048 600.055 425.109 631.739 397.746 663.424L490.05 568.783ZM609.286 568.783H748.188H609.286ZM609.286 568.783C569.413 599.644 532.349 631.328 498.862 663.424L609.286 568.783ZM748.188 568.783C700.664 599.027 655.677 630.916 614.278 663.424L748.188 568.783ZM748.188 568.783C774.389 552.094 802.735 535.864 830.257 520.142L748.188 568.783ZM748.188 568.783H830.257H748.188ZM13.2137 663.424H78.5795H13.2137ZM13.2137 663.424C5.25774 695.519 0.87618 727.202 0.581203 758.063L13.2137 663.424ZM78.5795 663.424C67.3039 695.519 59.6037 727.202 55.99 758.063L78.5795 663.424ZM78.5795 663.424H148.541H78.5795ZM289.096 568.783C264.288 600.467 242.8 632.15 224.376 663.424H306.849L289.096 568.783ZM306.849 663.424H397.746H306.849ZM397.746 663.424H498.862H397.746ZM498.862 663.424H614.278H498.862ZM498.862 663.424C466.143 694.696 436.992 726.38 412.186 758.063H507.936L498.862 663.424ZM614.278 663.424H750.622H614.278ZM614.278 663.424C575.172 694.285 539.382 725.968 507.936 758.063H618.239L614.278 663.424ZM750.622 663.424C703.089 693.668 658.365 725.351 618.239 758.063L750.622 663.424ZM750.622 663.424C775.925 647.365 803.475 631.725 830.257 616.617L750.622 663.424ZM750.622 663.424H830.257H750.622ZM0.581203 758.063C0.580267 759.298 0.578368 760.327 0.577431 761.561C0.538101 792.422 2.28737 822.666 5.56864 852.704L0.581203 758.063ZM0.581203 758.063H55.99H0.581203ZM55.99 758.063H115.483H55.99ZM55.99 758.063C52.4737 789.437 52.8548 821.243 54.8485 852.704L55.99 758.063ZM115.738 758.063H180.083H115.738ZM115.483 758.063C122.672 726.997 133.692 695.313 148.542 663.423H224.377C205.952 695.313 191.102 726.997 180.083 758.063H115.483ZM115.483 758.063H180.083H115.483ZM115.483 758.063C108.309 789.108 105.371 820.873 106.171 852.704L115.483 758.063ZM180.083 758.063C168.808 790.159 161.873 821.843 160.047 852.704L180.083 758.063ZM306.85 663.423C284.341 695.107 265.15 726.791 250.301 758.063L306.85 663.423ZM397.746 663.423C370.646 694.902 346.857 726.585 327.156 758.063L397.746 663.423ZM327.156 758.063H250.299H327.156ZM327.156 758.063C307.199 789.954 291.584 821.637 280.82 852.704L327.156 758.063ZM327.156 758.063H369.672H412.186C387.37 789.748 366.656 821.432 350.782 852.704L327.156 758.063ZM507.936 758.063H618.239H507.936ZM507.936 758.063C477.259 789.336 450.402 821.02 428.92 852.704L507.936 758.063ZM618.239 758.063H750.753C703.229 788.307 659.526 820.197 621.179 852.704L618.239 758.063ZM618.239 758.063C580.154 788.924 546.152 820.815 517.516 852.704L618.239 758.063ZM618.239 758.063H750.763H618.239ZM750.763 758.063C775.962 742.042 803.184 726.479 830.257 711.482L750.763 758.063ZM750.763 758.063H830.257H750.763ZM180.081 758.063H250.299H180.081ZM159.79 852.704C159.534 853.321 159.532 854.144 159.532 854.761L159.79 852.704ZM217.496 852.704C223.664 821.637 234.939 790.159 250.299 758.063L217.496 852.704ZM747.832 852.704C773.687 836.171 801.911 820.168 830.257 804.813L747.832 852.704Z" stroke="#00BBFF" stroke-opacity="0.3" stroke-width="0.819169" stroke-miterlimit="10"/>
</svg>
